<svg width="40" height="40" viewBox="0 0 40 40" fill="none" xmlns="http://www.w3.org/2000/svg">
<g clip-path="url(#clip0_1_2637)">
<path d="M30.6666 16.9331C30.1333 17.0664 29.8666 17.7331 30.1333 18.2664C30.7999 19.8664 31.0666 21.5998 31.0666 23.3331C31.0666 31.3331 24.5333 37.7331 16.6666 37.7331C8.79993 37.7331 2.2666 31.3331 2.2666 23.3331C2.2666 15.3331 8.6666 8.93309 16.6666 8.93309C18.1333 8.93309 19.7333 9.19975 21.1999 9.59975C21.7333 9.73309 22.2666 9.46642 22.3999 8.93309C22.5333 8.39975 22.2666 7.86642 21.7333 7.73309C20.1333 7.19975 18.3999 6.93309 16.6666 6.93309C7.59993 6.93309 0.266602 14.2664 0.266602 23.3331C0.266602 32.3998 7.59993 39.7331 16.6666 39.7331C25.7333 39.7331 33.0666 32.3998 33.0666 23.3331C33.0666 21.3331 32.6666 19.3331 31.9999 17.4664C31.8666 17.0664 31.1999 16.7998 30.6666 16.9331ZM16.6666 19.9998C17.1999 19.9998 17.7333 19.5998 17.7333 18.9331C17.7333 18.2664 17.3333 17.8664 16.6666 17.8664C13.7333 17.8664 11.3333 20.2664 11.3333 23.1998C11.3333 26.1331 13.7333 28.5331 16.6666 28.5331C19.5999 28.5331 21.9999 26.1331 21.9999 23.1998C21.9999 22.6664 21.5999 22.1331 20.9333 22.1331C20.2666 22.1331 19.9999 22.7998 19.9999 23.3331C19.9999 25.1998 18.5333 26.6664 16.6666 26.6664C14.7999 26.6664 13.3333 25.1998 13.3333 23.3331C13.3333 21.4664 14.7999 19.9998 16.6666 19.9998ZM21.5999 14.7998C21.8666 14.2664 21.5999 13.7331 21.0666 13.4664C19.7333 12.7998 18.1333 12.5331 16.6666 12.5331C10.6666 12.5331 5.73327 17.3331 5.73327 23.3331C5.73327 29.3331 10.6666 34.2664 16.6666 34.2664C22.6666 34.2664 27.5999 29.3331 27.5999 23.3331C27.5999 21.7331 27.3333 20.2664 26.6666 18.9331C26.3999 18.3998 25.8666 18.1331 25.3333 18.3998C24.7999 18.6664 24.6666 19.1998 24.7999 19.7331C25.3333 20.9331 25.5999 22.1331 25.5999 23.3331C25.5999 28.2664 21.5999 32.2664 16.6666 32.2664C11.7333 32.2664 7.73327 28.2664 7.73327 23.3331C7.73327 18.3998 11.7333 14.3998 16.6666 14.3998C17.9999 14.3998 19.1999 14.6664 20.2666 15.1998C20.7999 15.4664 21.3333 15.1998 21.5999 14.7998ZM39.7333 8.13309C39.5999 7.73309 39.3333 7.46642 38.9333 7.46642L33.4666 6.53309L32.5333 1.06642C32.5333 0.666419 32.2666 0.399752 31.8666 0.266419C31.4666 0.133085 31.0666 0.266419 30.7999 0.533085L24.2666 7.06642C23.9999 7.33309 23.8666 7.59975 23.9999 7.99975L25.0666 13.5998L16.6666 21.9998H16.5333C15.7333 21.9998 15.0666 22.6664 15.0666 23.4664C15.0666 24.2664 15.7333 24.9331 16.5333 24.9331C17.3333 24.9331 17.9999 24.2664 17.9999 23.4664L26.5333 14.9331L31.9999 15.9998H32.1333C32.3999 15.9998 32.6666 15.8664 32.7999 15.7331L39.3333 9.19975C39.7333 8.93309 39.8666 8.53309 39.7333 8.13309ZM26.1333 7.99975L30.9333 3.19975L31.5999 6.93309L26.9333 11.5998L26.1333 7.99975ZM31.9999 13.8664L28.3999 13.1998L33.0666 8.53309L36.6666 9.19975L31.9999 13.8664Z" fill="white"/>
</g>
<defs>
<clipPath id="clip0_1_2637">
<rect width="40" height="40" fill="white"/>
</clipPath>
</defs>
</svg>
