<svg width="43" height="43" viewBox="0 0 43 43" fill="none" xmlns="http://www.w3.org/2000/svg">
<path fill-rule="evenodd" clip-rule="evenodd" d="M0 21.2772C0 9.52612 9.52612 0 21.2772 0C33.0283 0 42.5544 9.52612 42.5544 21.2772C42.5544 33.0283 33.0283 42.5544 21.2772 42.5544C9.52612 42.5544 0 33.0283 0 21.2772ZM21.2772 10.6386C27.1284 10.6386 31.9158 15.426 31.9158 21.2772C31.9158 26.5965 28.0593 31.1179 22.74 31.9158V24.3358H25.2667L25.7986 21.2772H22.873V19.2825C22.873 18.4846 23.2719 17.6867 24.6018 17.6867H25.9316V15.027C25.9316 15.027 24.7347 14.7611 23.5379 14.7611C21.1442 14.7611 19.5484 16.2239 19.5484 18.8835V21.2772H16.8888V24.3358H19.5484V31.7828C14.4951 30.9849 10.6386 26.5965 10.6386 21.2772C10.6386 15.426 15.426 10.6386 21.2772 10.6386Z" fill="white"/>
</svg>
