<svg width="43" height="43" viewBox="0 0 43 43" fill="none" xmlns="http://www.w3.org/2000/svg">
<path d="M21.4948 25.0007C19.5 25.0007 17.7712 23.4049 17.7712 21.2772C17.7712 19.2825 19.367 17.5537 21.4948 17.5537C23.4895 17.5537 25.2183 19.1495 25.2183 21.2772C25.2183 23.2719 23.4895 25.0007 21.4948 25.0007Z" fill="white"/>
<path fill-rule="evenodd" clip-rule="evenodd" d="M26.0162 12.2344H16.9734C15.9095 12.3674 15.3776 12.5003 14.9786 12.6333C14.4467 12.7663 14.0477 13.0323 13.6488 13.4312C13.3331 13.7469 13.184 14.0626 13.0037 14.4442C12.9562 14.5447 12.9064 14.6501 12.8509 14.7611C12.8303 14.8228 12.8066 14.8877 12.7811 14.9572C12.642 15.3373 12.4519 15.8565 12.4519 16.7558V25.7986C12.5849 26.8625 12.7179 27.3944 12.8509 27.7933C12.9839 28.3253 13.2498 28.7242 13.6488 29.1232C13.9645 29.4388 14.2802 29.588 14.6617 29.7683C14.7624 29.8158 14.8676 29.8655 14.9786 29.9211C15.0403 29.9416 15.1052 29.9654 15.1748 29.9908C15.5549 30.13 16.0741 30.32 16.9734 30.32H26.0162C27.08 30.187 27.6119 30.054 28.0109 29.9211C28.5428 29.7881 28.9418 29.5221 29.3407 29.1232C29.6564 28.8075 29.8056 28.4918 29.9858 28.1102C30.0334 28.0096 30.0831 27.9043 30.1386 27.7933C30.1592 27.7316 30.1829 27.6667 30.2084 27.5972C30.3475 27.2171 30.5376 26.6979 30.5376 25.7986V16.7558C30.4046 15.6919 30.2716 15.16 30.1386 14.7611C30.0056 14.2291 29.7397 13.8302 29.3407 13.4312C29.025 13.1155 28.7094 12.9664 28.3278 12.7861C28.2273 12.7386 28.1217 12.6887 28.0109 12.6333C27.9492 12.6128 27.8843 12.589 27.8147 12.5635C27.4346 12.4244 26.9154 12.2344 26.0162 12.2344ZM21.4948 15.5589C18.3032 15.5589 15.7765 18.0856 15.7765 21.2772C15.7765 24.4688 18.3032 26.9954 21.4948 26.9954C24.6863 26.9954 27.213 24.4688 27.213 21.2772C27.213 18.0856 24.6863 15.5589 21.4948 15.5589ZM28.6758 15.426C28.6758 16.1604 28.0804 16.7558 27.346 16.7558C26.6115 16.7558 26.0162 16.1604 26.0162 15.426C26.0162 14.6915 26.6115 14.0961 27.346 14.0961C28.0804 14.0961 28.6758 14.6915 28.6758 15.426Z" fill="white"/>
<path fill-rule="evenodd" clip-rule="evenodd" d="M0.21756 21.2772C0.21756 9.52612 9.74368 0 21.4948 0C33.2458 0 42.7719 9.52612 42.7719 21.2772C42.7719 33.0283 33.2458 42.5544 21.4948 42.5544C9.74368 42.5544 0.21756 33.0283 0.21756 21.2772ZM16.9734 10.2396H26.0162C27.213 10.3726 28.0109 10.5056 28.6758 10.7716C29.4737 11.1705 30.0056 11.4365 30.6705 12.1014C31.3355 12.7663 31.7344 13.4312 32.0004 14.0961C32.2663 14.7611 32.5323 15.5589 32.5323 16.7558V25.7986C32.3993 26.9954 32.2663 27.7933 32.0004 28.4582C31.6014 29.2561 31.3355 29.7881 30.6705 30.453C30.0056 31.1179 29.3407 31.5168 28.6758 31.7828C28.0109 32.0488 27.213 32.3147 26.0162 32.3147H16.9734C15.7765 32.1818 14.9786 32.0488 14.3137 31.7828C13.5158 31.3839 12.9839 31.1179 12.319 30.453C11.6541 29.7881 11.2551 29.1232 10.9891 28.4582C10.7232 27.7933 10.4572 26.9954 10.4572 25.7986V16.7558C10.5902 15.5589 10.7232 14.7611 10.9891 14.0961C11.3881 13.2982 11.6541 12.7663 12.319 12.1014C12.9839 11.4365 13.6488 11.0375 14.3137 10.7716C14.9786 10.5056 15.7765 10.2396 16.9734 10.2396Z" fill="white"/>
</svg>
