<svg width="20" height="20" viewBox="0 0 20 20" fill="none" xmlns="http://www.w3.org/2000/svg">
<path d="M10 9.79166C10.4028 9.79166 10.7466 9.6493 11.0313 9.36457C11.316 9.07985 11.4584 8.7361 11.4584 8.33332C11.4584 7.93055 11.316 7.58679 11.0313 7.30207C10.7466 7.01735 10.4028 6.87499 10 6.87499C9.59726 6.87499 9.25351 7.01735 8.96879 7.30207C8.68407 7.58679 8.54171 7.93055 8.54171 8.33332C8.54171 8.7361 8.68407 9.07985 8.96879 9.36457C9.25351 9.6493 9.59726 9.79166 10 9.79166ZM10 16.6875C11.8473 15.0069 13.2118 13.4826 14.0938 12.1146C14.9757 10.7465 15.4167 9.54166 15.4167 8.49999C15.4167 6.8611 14.8924 5.52082 13.8438 4.47916C12.7952 3.43749 11.5139 2.91666 10 2.91666C8.48615 2.91666 7.2049 3.43749 6.15629 4.47916C5.10768 5.52082 4.58337 6.8611 4.58337 8.49999C4.58337 9.54166 5.03476 10.7465 5.93754 12.1146C6.84032 13.4826 8.19449 15.0069 10 16.6875ZM10 18.3333C7.76393 16.4305 6.09379 14.6632 4.98962 13.0312C3.88546 11.3993 3.33337 9.88888 3.33337 8.49999C3.33337 6.41666 4.00351 4.75693 5.34379 3.52082C6.68407 2.28471 8.23615 1.66666 10 1.66666C11.7639 1.66666 13.316 2.28471 14.6563 3.52082C15.9966 4.75693 16.6667 6.41666 16.6667 8.49999C16.6667 9.88888 16.1146 11.3993 15.0105 13.0312C13.9063 14.6632 12.2362 16.4305 10 18.3333Z" fill="#127C93"/>
</svg>
