<svg width="20" height="20" viewBox="0 0 20 20" fill="none" xmlns="http://www.w3.org/2000/svg">
<path d="M2.91663 16.6666C2.58329 16.6666 2.29163 16.5416 2.04163 16.2916C1.79163 16.0416 1.66663 15.75 1.66663 15.4166V4.58331C1.66663 4.24998 1.79163 3.95831 2.04163 3.70831C2.29163 3.45831 2.58329 3.33331 2.91663 3.33331H17.0833C17.4166 3.33331 17.7083 3.45831 17.9583 3.70831C18.2083 3.95831 18.3333 4.24998 18.3333 4.58331V15.4166C18.3333 15.75 18.2083 16.0416 17.9583 16.2916C17.7083 16.5416 17.4166 16.6666 17.0833 16.6666H2.91663ZM9.99996 10.375L2.91663 5.72915V15.4166H17.0833V5.72915L9.99996 10.375ZM9.99996 9.12498L17 4.58331H3.02079L9.99996 9.12498ZM2.91663 5.72915V4.58331V15.4166V5.72915Z" fill="#127C93"/>
</svg>
