<svg width="43" height="49" viewBox="0 0 43 49" fill="none" xmlns="http://www.w3.org/2000/svg">
<path d="M35.98 12.2099L38.16 10.0299L40.13 11.9999L42.1 10.0299L36.2 4.12986L34.23 6.09986L36.2 8.06986L33.83 10.4399C31.43 8.70986 28.71 7.50986 25.81 6.92986V3.63986H28.59V0.859863H14.68V3.63986H17.46V6.92986C14.57 7.50986 11.84 8.70986 9.44003 10.4399L7.07001 8.06986L9.04001 6.09986L7.07001 4.12986L1.17001 10.0299L3.14001 11.9999L5.11002 10.0299L7.29001 12.2099C3.19001 16.0999 0.77002 21.4599 0.77002 27.3699C0.77002 38.9299 10.13 48.3299 21.63 48.3299C33.13 48.3299 42.49 38.9299 42.49 27.3699C42.49 21.7499 40.27 16.2999 35.97 12.2099H35.98ZM20.25 3.62986H23.03V6.54986C22.57 6.51986 22.11 6.49986 21.64 6.49986C21.17 6.49986 20.71 6.51986 20.25 6.54986V3.62986ZM21.64 45.5399C11.67 45.5399 3.56003 37.3899 3.56003 27.3599C3.56003 17.3299 11.67 9.27986 21.64 9.27986C31.61 9.27986 39.72 17.3899 39.72 27.3599C39.72 37.3299 31.61 45.5399 21.64 45.5399Z" fill="#00C3D9"/>
<path d="M23.03 23.4398V12.0698H20.25V23.4398C18.63 24.0098 17.47 25.5598 17.47 27.3698C17.47 29.6698 19.34 31.5398 21.64 31.5398C23.94 31.5398 25.81 29.6698 25.81 27.3698C25.81 25.5598 24.65 24.0098 23.03 23.4398ZM21.64 28.7598C20.87 28.7598 20.25 28.1398 20.25 27.3698C20.25 26.5998 20.87 25.9798 21.64 25.9798C22.41 25.9798 23.03 26.5998 23.03 27.3698C23.03 28.1398 22.41 28.7598 21.64 28.7598Z" fill="#00C3D9"/>
<path d="M20.25 39.8899H23.03V42.6699H20.25V39.8899Z" fill="#00C3D9"/>
<path d="M6.34003 25.9799H9.12003V28.7599H6.34003V25.9799Z" fill="#00C3D9"/>
<path d="M34.16 25.9799H36.94V28.7599H34.16V25.9799Z" fill="#00C3D9"/>
<path d="M11.81 39.1699L9.84003 37.1999L11.81 35.2299L13.78 37.1999L11.81 39.1699Z" fill="#00C3D9"/>
<path d="M31.48 19.4998L29.51 17.5298L31.48 15.5598L33.45 17.5298L31.48 19.4998Z" fill="#00C3D9"/>
<path d="M31.48 39.1699L29.51 37.1999L31.48 35.2299L33.45 37.1999L31.48 39.1699Z" fill="#00C3D9"/>
<path d="M11.81 19.4998L9.84003 17.5298L11.81 15.5598L13.78 17.5298L11.81 19.4998Z" fill="#00C3D9"/>
</svg>
