<svg width="45" height="45" viewBox="0 0 45 45" fill="none" xmlns="http://www.w3.org/2000/svg">
<path d="M19.8001 12.3106C20.5501 11.6106 21.0101 10.6106 21.0101 9.51062C21.0101 8.05062 20.1901 6.78062 18.9901 6.13062L21.7701 0.380615H7.44012L10.2201 6.13062C9.02012 6.78062 8.20013 8.05062 8.20013 9.51062C8.20013 10.6106 8.67014 11.6106 9.42014 12.3106C2.51014 17.6006 0.520142 25.9806 0.520142 34.6906V41.5206H23.5701V44.0806H44.2301V18.4706H25.1401C23.7601 16.0406 21.9701 13.9806 19.7901 12.3106H19.8001ZM12.0501 10.7906C11.3401 10.7906 10.7701 10.2206 10.7701 9.51062C10.7701 8.80062 11.3401 8.23062 12.0501 8.23062H17.1701C17.8801 8.23062 18.4501 8.80062 18.4501 9.51062C18.4501 10.2206 17.8801 10.7906 17.1701 10.7906H12.0501ZM17.6901 2.94062L16.3701 5.67062H12.8501L11.5301 2.94062H17.6901ZM3.09012 38.9606V34.6906C3.09012 24.2606 6.14013 17.2806 12.4101 13.3606H16.8101C19.8101 15.2306 22.0301 17.7406 23.5701 21.0106V38.9706H3.08014L3.09012 38.9606ZM41.6701 41.5206H26.1301V36.4006H41.6701V41.5206ZM26.1301 33.8406V28.7206H41.6701V33.8406H26.1301ZM41.6701 21.0406V26.1606H26.1301V21.0406H41.6701Z" fill="#00C3D9"/>
<path d="M14.6101 24.8706C15.3201 24.8706 15.8901 25.4406 15.8901 26.1506H18.4501C18.4501 24.4806 17.3801 23.0606 15.8901 22.5306V21.0306H13.3301V22.5306C11.8401 23.0606 10.7701 24.4806 10.7701 26.1506C10.7701 28.2706 12.4901 29.9906 14.6101 29.9906C15.3201 29.9906 15.8901 30.5606 15.8901 31.2706C15.8901 31.9806 15.3201 32.5506 14.6101 32.5506C13.9001 32.5506 13.3301 31.9806 13.3301 31.2706H10.7701C10.7701 32.9406 11.8401 34.3606 13.3301 34.8906V36.3906H15.8901V34.8906C17.3801 34.3606 18.4501 32.9406 18.4501 31.2706C18.4501 29.1506 16.7301 27.4306 14.6101 27.4306C13.9001 27.4306 13.3301 26.8606 13.3301 26.1506C13.3301 25.4406 13.9001 24.8706 14.6101 24.8706Z" fill="#00C3D9"/>
</svg>
