<svg width="44" height="43" viewBox="0 0 44 43" fill="none" xmlns="http://www.w3.org/2000/svg">
<path d="M42.6262 5.30922L37.6462 7.79922L36.5362 5.56922L41.5162 3.07922L42.6262 5.30922Z" fill="#00C3D9"/>
<path d="M41.5162 25.2193L36.5362 22.7293L37.6462 20.4993L42.6262 22.9893L41.5162 25.2193Z" fill="#00C3D9"/>
<path d="M38.3362 12.9092H43.3962V15.3992H38.3362V12.9092Z" fill="#00C3D9"/>
<path d="M2.80623 3.07922L7.78623 5.56922L6.67623 7.79922L1.69623 5.30922L2.80623 3.07922Z" fill="#00C3D9"/>
<path d="M2.80623 25.2193L1.69623 22.9893L6.67623 20.4993L7.78623 22.7293L2.80623 25.2193Z" fill="#00C3D9"/>
<path d="M0.926208 12.9092H5.98621V15.3992H0.926208V12.9092Z" fill="#00C3D9"/>
<path d="M18.4262 40.4492H25.8962V42.9392H18.4262V40.4492Z" fill="#00C3D9"/>
<path d="M35.8562 14.1492C35.8562 6.59923 29.7162 0.459229 22.1662 0.459229C14.6162 0.459229 8.4762 6.59923 8.4762 14.1492C8.4762 19.2992 11.3762 23.9892 15.9462 26.3292V30.3292H13.4562V32.8192H15.9462V37.9592H28.3862V32.8192H30.8762V30.3292H28.3862V26.3292C32.9462 23.9892 35.8562 19.2992 35.8562 14.1492ZM25.8962 35.4692H18.4262V32.8192H25.8962V35.4692ZM20.9162 16.6392C20.9162 15.9492 21.4762 15.3992 22.1562 15.3992C22.8362 15.3992 23.3962 15.9592 23.3962 16.6392C23.3962 17.3192 22.8362 17.8792 22.1562 17.8792C21.4762 17.8792 20.9162 17.3192 20.9162 16.6392ZM23.4062 30.3292V20.1592C24.8562 19.6492 25.8962 18.2592 25.8962 16.6392C25.8962 14.5792 24.2262 12.9092 22.1662 12.9092C20.1062 12.9092 18.4362 14.5792 18.4362 16.6392C18.4362 18.2592 19.4762 19.6492 20.9262 20.1592V30.3292H18.4362V24.7292L17.6962 24.3992C13.6162 22.6092 10.9762 18.5792 10.9762 14.1492C10.9762 7.96923 15.9962 2.94923 22.1762 2.94923C28.3562 2.94923 33.3762 7.96923 33.3762 14.1492C33.3762 18.5792 30.7362 22.6092 26.6562 24.3992L25.9162 24.7292V30.3292H23.4262H23.4062Z" fill="#00C3D9"/>
</svg>
