<svg width="44" height="44" viewBox="0 0 44 44" fill="none" xmlns="http://www.w3.org/2000/svg">
<path d="M16.3 21.1299L21.94 18.1599L27.58 21.1299L26.5 14.8499L31.07 10.3999L24.76 9.47989L21.94 3.75989L19.12 9.47989L12.81 10.3999L17.38 14.8499L16.3 21.1299ZM20.82 11.8199L21.94 9.54989L23.06 11.8199L25.57 12.1799L23.76 13.9499L24.19 16.4499L21.95 15.2699L19.71 16.4499L20.14 13.9499L18.33 12.1799L20.84 11.8199H20.82Z" fill="#00C3D9"/>
<path d="M6.5 5.36992C2.97 5.36992 0.100037 8.23992 0.100037 11.7699C0.100037 15.2999 2.97 18.1699 6.5 18.1699H8.32001C9.66001 22.8599 13.39 26.5599 18.11 27.8899V33.5399H13.34L10.78 41.3099H7.85999V43.8699H36.03V41.3099H33.11L30.55 33.5399H25.78V27.8899C30.46 26.5599 34.16 22.8599 35.49 18.1799H37.39C40.92 18.1799 43.79 15.3099 43.79 11.7799C43.79 8.24992 40.92 5.37992 37.39 5.37992H36.02V2.72992H38.67V0.169922H5.21002V2.72992H7.77002V5.37992H6.48999L6.5 5.36992ZM6.5 15.6099C4.38 15.6099 2.66003 13.8899 2.66003 11.7699C2.66003 9.64992 4.38 7.92992 6.5 7.92992H7.78003V14.3299C7.78003 14.7599 7.80003 15.1899 7.84003 15.6099H6.5V15.6099ZM30.42 41.2999H13.47L15.19 36.0899H28.7L30.42 41.2999ZM23.23 33.5299H20.67V28.3499C21.09 28.3899 21.52 28.4099 21.95 28.4099C22.38 28.4099 22.81 28.3899 23.23 28.3499V33.5299V33.5299ZM37.4 7.91992C39.52 7.91992 41.24 9.63992 41.24 11.7599C41.24 13.8799 39.52 15.5999 37.4 15.5999H35.98C36.02 15.1799 36.04 14.7499 36.04 14.3199V7.91992H37.41H37.4ZM33.47 2.70992V14.3199C33.47 20.6699 28.3 25.8399 21.95 25.8399C15.6 25.8399 10.34 20.6699 10.34 14.3199V2.70992H33.47Z" fill="#00C3D9"/>
</svg>
