<svg width="510" height="647" viewBox="0 0 510 647" fill="none" xmlns="http://www.w3.org/2000/svg">
<g clip-path="url(#clip0_56_37)">
<path d="M248.16 0.149963C225.58 1.94996 207.34 20.32 205.69 42.91C204.74 55.88 209.16 67.83 216.95 76.78C222.17 82.78 223.32 91.32 220.07 98.58C216.76 105.97 209.44 110.61 201.34 110.79C200.48 110.81 199.61 110.85 198.74 110.92C175.94 112.67 157.55 131.32 156.09 154.15C154.38 181.09 175.8 203.55 202.38 203.55H202.5C209.86 203.55 216.53 207.86 219.54 214.58L220.64 217.04C223.57 223.6 222.56 231.38 217.71 236.68C214.54 240.14 211.9 244.09 209.89 248.4C209.87 248.45 209.85 248.49 209.83 248.54C209.61 249.02 209.4 249.5 209.19 249.99C209.11 250.17 209.03 250.36 208.96 250.54C208.81 250.92 208.66 251.3 208.52 251.69C208.41 251.99 208.29 252.29 208.19 252.59C208.09 252.89 207.99 253.19 207.89 253.49C207.76 253.88 207.63 254.28 207.51 254.68C207.44 254.91 207.37 255.15 207.31 255.38C207.18 255.85 207.05 256.32 206.93 256.8C206.88 256.99 206.84 257.17 206.8 257.36C206.68 257.88 206.56 258.4 206.46 258.93C206.43 259.1 206.4 259.26 206.36 259.43C206.26 259.97 206.17 260.51 206.09 261.05C206.06 261.23 206.04 261.41 206.01 261.58C205.94 262.1 205.88 262.62 205.82 263.14C205.8 263.37 205.77 263.59 205.75 263.82C205.73 264.03 205.7 264.25 205.69 264.46C205.67 264.68 205.67 264.9 205.66 265.12C205.64 265.51 205.62 265.9 205.6 266.29C205.59 266.66 205.58 267.02 205.57 267.39C205.57 267.58 205.56 267.76 205.56 267.95C205.56 268.2 205.57 268.44 205.58 268.69C205.58 269.01 205.59 269.33 205.6 269.65C205.62 270.12 205.64 270.59 205.68 271.06C205.7 271.34 205.71 271.62 205.74 271.89C205.78 272.42 205.84 272.94 205.9 273.46C205.93 273.68 205.95 273.89 205.98 274.11C206.07 274.75 206.17 275.39 206.28 276.02C206.3 276.11 206.31 276.21 206.33 276.3C206.74 278.56 207.32 280.76 208.05 282.9V282.92C208.29 283.61 208.54 284.3 208.81 284.98C208.83 285.03 208.85 285.09 208.88 285.14C209.13 285.77 209.4 286.4 209.68 287.02C209.71 287.09 209.74 287.16 209.78 287.23C210.06 287.84 210.35 288.44 210.66 289.03C210.69 289.09 210.73 289.16 210.76 289.22C211.07 289.82 211.4 290.42 211.74 291.01C211.77 291.05 211.79 291.1 211.82 291.14C212.18 291.76 212.55 292.37 212.94 292.97C212.94 292.97 212.95 292.99 212.96 293C214.2 294.93 215.58 296.77 217.09 298.49C217.3 298.73 217.49 298.97 217.68 299.21C222.28 305.15 223.18 313.21 220.09 320.12C216.78 327.51 209.46 332.15 201.36 332.33C200.5 332.35 199.63 332.39 198.76 332.46C187.54 333.32 177.39 338.28 169.8 345.81C169.8 345.81 169.79 345.82 169.78 345.83C169.34 346.26 168.92 346.71 168.5 347.16C168.45 347.22 168.39 347.27 168.34 347.33C167.97 347.74 167.6 348.15 167.24 348.57C167.15 348.68 167.05 348.78 166.96 348.89C166.64 349.26 166.34 349.65 166.03 350.03C165.9 350.19 165.78 350.34 165.65 350.5C165.38 350.85 165.13 351.2 164.87 351.55C164.72 351.76 164.57 351.96 164.42 352.17C164.2 352.49 163.98 352.81 163.77 353.13C163.6 353.38 163.43 353.63 163.27 353.89C163.08 354.18 162.9 354.48 162.72 354.78C162.54 355.07 162.36 355.36 162.19 355.66C162.03 355.93 161.88 356.21 161.73 356.49C161.55 356.82 161.37 357.14 161.2 357.47C161.06 357.73 160.93 358 160.8 358.26C160.62 358.61 160.45 358.96 160.28 359.32C160.16 359.57 160.05 359.83 159.94 360.08C159.77 360.45 159.61 360.83 159.45 361.21C159.35 361.46 159.25 361.71 159.15 361.97C159 362.36 158.85 362.74 158.71 363.14C158.62 363.4 158.53 363.66 158.44 363.92C158.31 364.31 158.18 364.7 158.05 365.1C157.97 365.37 157.89 365.64 157.81 365.91C157.7 366.3 157.58 366.69 157.48 367.09C157.41 367.38 157.34 367.67 157.27 367.96C157.18 368.34 157.09 368.72 157.01 369.11C156.94 369.42 156.89 369.73 156.83 370.05C156.76 370.42 156.69 370.79 156.63 371.16C156.57 371.5 156.53 371.84 156.48 372.18C156.43 372.53 156.38 372.88 156.34 373.23C156.3 373.6 156.26 373.97 156.23 374.34C156.21 374.56 156.18 374.78 156.16 375C156.16 375.09 156.16 375.19 156.15 375.28C156.14 375.43 156.12 375.57 156.11 375.72C156.09 376.1 156.08 376.47 156.07 376.85C156.06 377.21 156.04 377.57 156.03 377.93C156.03 378.42 156.03 378.9 156.03 379.38C156.03 379.76 156.03 380.13 156.05 380.51C156.07 380.96 156.1 381.4 156.13 381.85C156.16 382.25 156.18 382.66 156.21 383.06C156.25 383.44 156.3 383.82 156.34 384.2C156.39 384.65 156.44 385.11 156.51 385.56C156.54 385.74 156.58 385.92 156.6 386.11C156.94 388.25 157.43 390.33 158.05 392.36C158.07 392.44 158.09 392.51 158.12 392.59C158.31 393.21 158.53 393.83 158.75 394.44C158.8 394.58 158.85 394.72 158.9 394.87C159.12 395.46 159.36 396.04 159.6 396.61C159.67 396.77 159.73 396.92 159.79 397.08C160.04 397.65 160.3 398.21 160.57 398.77C160.64 398.92 160.71 399.08 160.79 399.23C161.06 399.79 161.35 400.33 161.65 400.88C161.73 401.03 161.81 401.18 161.89 401.32C162.19 401.86 162.51 402.4 162.84 402.93C162.92 403.07 163.01 403.21 163.09 403.34C163.42 403.87 163.77 404.4 164.13 404.92C164.21 405.04 164.3 405.17 164.38 405.29C164.75 405.81 165.13 406.33 165.51 406.84C165.59 406.95 165.67 407.05 165.76 407.16C166.16 407.68 166.57 408.19 167 408.68C167.07 408.77 167.15 408.85 167.22 408.94C167.66 409.45 168.11 409.95 168.57 410.45C168.63 410.51 168.69 410.58 168.75 410.64C169.23 411.15 169.72 411.65 170.23 412.13C170.27 412.17 170.31 412.2 170.35 412.24C170.88 412.75 171.42 413.25 171.98 413.73C171.98 413.73 171.99 413.73 172 413.74C180.18 420.86 190.87 425.16 202.55 425.12C209.9 425.12 216.56 429.44 219.57 436.15L220.67 438.61C223.6 445.17 222.59 452.95 217.74 458.25C210.2 466.5 205.59 477.48 205.59 489.52C205.59 501.56 209.94 511.9 217.1 520.06C222.23 525.91 223.45 534.21 220.28 541.31L220.13 541.65C216.79 549.11 209.47 553.75 201.37 553.93C200.6 553.95 199.83 553.98 199.05 554.04C176.38 555.64 157.94 573.91 156.15 596.54C153.89 625.07 177.63 648.8 206.17 646.53C228.75 644.73 246.99 626.36 248.65 603.77C249.6 590.8 245.18 578.84 237.39 569.89C232.17 563.89 231.02 555.35 234.27 548.09C237.58 540.7 244.9 536.06 253 535.88C254.61 535.84 256.23 535.73 257.87 535.52C278.89 532.9 295.67 515.88 298.03 494.83C301.16 466.88 279.28 443.12 251.94 443.12H251.82C244.46 443.12 237.79 438.81 234.78 432.09L233.68 429.63C230.75 423.07 231.76 415.29 236.61 409.99C239.78 406.53 242.42 402.58 244.42 398.28C244.44 398.23 244.46 398.19 244.49 398.14C244.71 397.66 244.92 397.17 245.13 396.69C245.21 396.51 245.29 396.33 245.36 396.15C245.52 395.77 245.66 395.38 245.81 394.99C245.92 394.69 246.03 394.4 246.14 394.1C246.25 393.8 246.34 393.5 246.44 393.2C246.57 392.81 246.7 392.41 246.82 392.02C246.89 391.78 246.96 391.55 247.02 391.31C247.15 390.84 247.28 390.37 247.4 389.9C247.45 389.71 247.49 389.52 247.54 389.33C247.66 388.81 247.78 388.29 247.88 387.77C247.91 387.6 247.95 387.43 247.98 387.26C248.08 386.72 248.17 386.18 248.25 385.64C248.28 385.46 248.3 385.29 248.33 385.11C248.4 384.59 248.46 384.07 248.52 383.55C248.54 383.32 248.57 383.1 248.59 382.87C248.61 382.66 248.64 382.45 248.65 382.24C248.67 382.02 248.67 381.8 248.68 381.58C248.7 381.19 248.72 380.79 248.74 380.4C248.75 380.03 248.76 379.67 248.77 379.31C248.77 379.12 248.78 378.94 248.78 378.75C248.78 378.5 248.77 378.25 248.76 377.99C248.76 377.68 248.76 377.37 248.74 377.07C248.72 376.59 248.69 376.11 248.66 375.63C248.64 375.36 248.63 375.1 248.61 374.84C248.56 374.29 248.5 373.74 248.44 373.2C248.42 373.01 248.4 372.82 248.37 372.63C248.07 370.36 247.6 368.15 246.99 365.99C246.98 365.95 246.97 365.92 246.96 365.89C246.76 365.21 246.55 364.54 246.33 363.88C246.3 363.79 246.27 363.71 246.24 363.62C246.03 363 245.8 362.39 245.56 361.79C245.52 361.69 245.48 361.6 245.44 361.5C245.2 360.9 244.95 360.31 244.68 359.73C244.64 359.64 244.6 359.56 244.56 359.47C244.28 358.87 243.99 358.27 243.69 357.68C243.66 357.62 243.63 357.56 243.6 357.51C243.27 356.87 242.93 356.24 242.57 355.62C242.57 355.62 242.57 355.62 242.57 355.61C241.12 353.1 239.44 350.73 237.56 348.54C233.07 343.32 231.46 336.31 233.14 329.8C233.43 328.7 233.79 327.62 234.27 326.57C237.58 319.18 244.9 314.54 253 314.36C254.61 314.32 256.23 314.21 257.87 314C258.27 313.95 258.65 313.86 259.05 313.8C259.5 313.73 259.95 313.66 260.4 313.57C261.49 313.37 262.56 313.13 263.62 312.86C263.73 312.83 263.84 312.8 263.95 312.78C277.84 309.07 289.2 298.99 294.71 285.92C294.74 285.86 294.77 285.79 294.79 285.73C295.08 285.03 295.36 284.32 295.61 283.61C295.83 283 296.04 282.39 296.23 281.78C296.39 281.28 296.54 280.77 296.67 280.26C296.9 279.42 297.11 278.57 297.3 277.71C297.38 277.35 297.45 276.98 297.52 276.61C297.71 275.6 297.87 274.58 298 273.55C298 273.47 298.03 273.39 298.04 273.31C298.07 273.07 298.08 272.84 298.1 272.6C298.13 272.31 298.17 272.02 298.19 271.73C298.2 271.57 298.2 271.42 298.21 271.26C298.24 270.78 298.27 270.3 298.28 269.82C298.3 269.41 298.31 269.01 298.32 268.61C298.32 268.16 298.32 267.71 298.32 267.26C298.32 266.84 298.31 266.41 298.29 265.99C298.27 265.57 298.24 265.16 298.21 264.74C298.18 264.3 298.15 263.85 298.11 263.41C298.07 263.03 298.02 262.65 297.98 262.28C297.92 261.81 297.86 261.34 297.79 260.88C297.74 260.54 297.67 260.2 297.61 259.86C297.52 259.37 297.43 258.87 297.33 258.38C297.27 258.08 297.19 257.79 297.13 257.5C297.01 256.98 296.89 256.46 296.75 255.94C296.68 255.69 296.61 255.45 296.54 255.21C296.38 254.66 296.22 254.1 296.04 253.56C295.98 253.37 295.91 253.18 295.84 253C295.64 252.41 295.43 251.81 295.2 251.23C295.15 251.11 295.1 250.99 295.05 250.87C294.79 250.23 294.53 249.59 294.24 248.96C294.22 248.92 294.21 248.89 294.19 248.86C286.87 232.76 270.62 221.56 251.8 221.61C244.45 221.61 237.79 217.29 234.79 210.58L233.69 208.12C230.76 201.56 231.77 193.78 236.62 188.48C244.16 180.23 248.77 169.25 248.77 157.22C248.77 145.19 244.54 135.13 237.56 127.01C232.31 120.91 230.98 112.36 234.27 105.02C237.58 97.63 244.9 92.99 253 92.81C253.86 92.79 254.73 92.75 255.61 92.68C278.13 90.94 296.4 72.72 298.19 50.2C300.45 21.66 276.71 -2.07999 248.17 0.200012L248.16 0.149963Z" fill="#04284A"/>
<path d="M236.561 603.072C238.095 584.202 224.043 567.66 205.173 566.125C186.302 564.591 169.761 578.644 168.226 597.514C166.691 616.384 180.744 632.925 199.614 634.46C218.484 635.995 235.026 621.942 236.561 603.072Z" fill="white"/>
<path d="M222.626 585.309L217.646 587.799L216.536 585.569L221.516 583.079L222.626 585.309Z" fill="#00C3D9"/>
<path d="M221.516 605.219L216.536 602.729L217.646 600.499L222.626 602.989L221.516 605.219Z" fill="#00C3D9"/>
<path d="M218.336 592.909H223.396V595.399H218.336V592.909Z" fill="#00C3D9"/>
<path d="M182.806 583.079L187.786 585.569L186.676 587.799L181.696 585.309L182.806 583.079V583.079Z" fill="#00C3D9"/>
<path d="M182.806 605.219L181.696 602.989L186.676 600.499L187.786 602.729L182.806 605.219Z" fill="#00C3D9"/>
<path d="M180.926 592.909H185.986V595.399H180.926V592.909Z" fill="#00C3D9"/>
<path d="M198.426 620.449H205.896V622.939H198.426V620.449Z" fill="#00C3D9"/>
<path d="M215.856 594.149C215.856 586.599 209.716 580.459 202.166 580.459C194.616 580.459 188.476 586.599 188.476 594.149C188.476 599.299 191.376 603.989 195.946 606.329V610.329H193.456V612.819H195.946V617.959H208.386V612.819H210.876V610.329H208.386V606.329C212.946 603.989 215.856 599.299 215.856 594.149ZM205.896 615.469H198.426V612.819H205.896V615.469ZM200.916 596.639C200.916 595.949 201.476 595.399 202.156 595.399C202.836 595.399 203.396 595.959 203.396 596.639C203.396 597.319 202.836 597.879 202.156 597.879C201.476 597.879 200.916 597.319 200.916 596.639ZM203.406 610.329V600.159C204.856 599.649 205.896 598.259 205.896 596.639C205.896 594.579 204.226 592.909 202.166 592.909C200.106 592.909 198.436 594.579 198.436 596.639C198.436 598.259 199.476 599.649 200.926 600.159V610.329H198.436V604.729L197.696 604.399C193.616 602.609 190.976 598.579 190.976 594.149C190.976 587.969 195.996 582.949 202.176 582.949C208.356 582.949 213.376 587.969 213.376 594.149C213.376 598.579 210.736 602.609 206.656 604.399L205.916 604.729V610.329H203.426H203.406Z" fill="#00C3D9"/>
<path d="M251.95 523.79C270.882 523.79 286.23 508.442 286.23 489.51C286.23 470.578 270.882 455.23 251.95 455.23C233.018 455.23 217.67 470.578 217.67 489.51C217.67 508.442 233.018 523.79 251.95 523.79Z" fill="white"/>
<path d="M251.94 482.57C248.48 482.57 245.67 485.38 245.67 488.84C245.67 492.3 248.48 495.11 251.94 495.11C255.4 495.11 258.21 492.3 258.21 488.84C258.21 485.38 255.4 482.57 251.94 482.57ZM251.94 492.6C249.87 492.6 248.18 490.91 248.18 488.84C248.18 486.77 249.87 485.08 251.94 485.08C254.01 485.08 255.7 486.77 255.7 488.84C255.7 490.91 254.01 492.6 251.94 492.6Z" fill="#00C3D9"/>
<path d="M251.94 490.61L250.17 488.84L251.94 487.07L253.71 488.84L251.94 490.61Z" fill="#00C3D9"/>
<path d="M263.16 496.94C263.3 494.42 263.19 491.91 262.81 489.41C261.86 483.14 259.28 477.16 255.14 471.65L251.95 467.39L248.76 471.65C244.63 477.16 242.05 483.14 241.09 489.41C240.71 491.9 240.59 494.42 240.74 496.94C239.28 497.99 238.07 499.36 237.19 500.93C236.18 502.75 235.65 504.81 235.65 506.89V510.25L238.25 508.34C239.55 507.48 241.03 506.9 242.57 506.64C243.04 508.12 243.4 508.97 243.87 510.26C244.7 509.71 246.69 507.25 250.7 506.77V510.25H253.21V506.77C257.23 507.25 259.22 509.71 260.04 510.26C260.52 508.96 260.87 508.12 261.34 506.64C262.88 506.9 264.36 507.48 265.66 508.34L268.26 510.25V506.89C268.26 502.95 266.37 499.25 263.17 496.94H263.16ZM238.26 505.44C238.57 503.35 239.54 501.44 241.03 499.96C241.23 501.38 241.51 502.79 241.87 504.21C240.62 504.45 239.4 504.86 238.26 505.44ZM258.85 506.16C257.11 505.07 255.18 504.43 253.21 504.24V497.7H250.7V504.24C248.73 504.43 246.79 505.07 245.06 506.16C241.32 494.75 243.32 483.09 250.77 473.16L251.96 471.58L253.15 473.16C260.6 483.09 262.6 494.75 258.86 506.16H258.85ZM262.03 504.21C262.39 502.79 262.67 501.38 262.87 499.96C264.36 501.43 265.34 503.35 265.64 505.44C264.5 504.87 263.28 504.45 262.03 504.21Z" fill="#00C3D9"/>
<path d="M230.54 477.55H238.15V480.06H230.54V477.55Z" fill="#00C3D9"/>
<path d="M265.74 477.55H273.35V480.06H265.74V477.55Z" fill="#00C3D9"/>
<path d="M233.15 468.66L239.97 471.84L238.91 474.11L232.09 470.93L233.15 468.66Z" fill="#00C3D9"/>
<path d="M270.74 488.95L263.92 485.77L264.98 483.5L271.8 486.68L270.74 488.95Z" fill="#00C3D9"/>
<path d="M232.09 486.68L238.91 483.5L239.97 485.77L233.15 488.95L232.09 486.68Z" fill="#00C3D9"/>
<path d="M270.74 468.66L271.8 470.93L264.98 474.11L263.92 471.84L270.74 468.66Z" fill="#00C3D9"/>
<path d="M236.218 384.258C239.284 365.576 226.624 347.945 207.942 344.879C189.259 341.813 171.629 354.473 168.563 373.155C165.497 391.837 178.156 409.468 196.838 412.534C215.521 415.6 233.151 402.941 236.218 384.258Z" fill="white"/>
<path d="M223.917 396.727H221.437V378.557L223.917 381.037V366.887H209.767L214.217 371.337L209.937 375.617L200.337 368.477L184.077 380.037V356.877H181.597V399.207H223.927V396.727H223.917ZM199.037 378.537V396.727H191.597V383.827L199.037 378.537ZM201.517 378.657L209.037 384.257V396.737H201.517V378.667V378.657ZM211.517 384.547L218.957 377.107V396.727H211.517V384.547ZM200.297 371.547L210.167 378.887L217.717 371.337L215.747 369.367H221.437V375.057L219.467 373.087L210.387 382.167L200.247 374.627L184.067 386.127V383.077L200.287 371.547H200.297ZM184.077 389.177L189.117 385.597V396.737H184.077V389.187V389.177Z" fill="#00C3D9"/>
<path d="M236.222 162.687C239.288 144.005 226.629 126.374 207.946 123.308C189.264 120.242 171.633 132.901 168.567 151.584C165.501 170.266 178.161 187.897 196.843 190.963C215.526 194.029 233.156 181.369 236.222 162.687Z" fill="white"/>
<path d="M199.8 145.311C200.55 144.611 201.01 143.611 201.01 142.511C201.01 141.051 200.19 139.781 198.99 139.131L201.77 133.381H187.44L190.22 139.131C189.02 139.781 188.2 141.051 188.2 142.511C188.2 143.611 188.67 144.611 189.42 145.311C182.51 150.601 180.52 158.981 180.52 167.691V174.521H203.57V177.081H224.23V151.471H205.14C203.76 149.041 201.97 146.981 199.79 145.311H199.8ZM192.05 143.791C191.34 143.791 190.77 143.221 190.77 142.511C190.77 141.801 191.34 141.231 192.05 141.231H197.17C197.88 141.231 198.45 141.801 198.45 142.511C198.45 143.221 197.88 143.791 197.17 143.791H192.05ZM197.69 135.941L196.37 138.671H192.85L191.53 135.941H197.69V135.941ZM183.09 171.961V167.691C183.09 157.261 186.14 150.281 192.41 146.361H196.81C199.81 148.231 202.03 150.741 203.57 154.011V171.971H183.08L183.09 171.961ZM221.67 174.521H206.13V169.401H221.67V174.521ZM206.13 166.841V161.721H221.67V166.841H206.13ZM221.67 154.041V159.161H206.13V154.041H221.67Z" fill="#00C3D9"/>
<path d="M194.61 157.871C195.32 157.871 195.89 158.441 195.89 159.151H198.45C198.45 157.481 197.38 156.061 195.89 155.531V154.031H193.33V155.531C191.84 156.061 190.77 157.481 190.77 159.151C190.77 161.271 192.49 162.991 194.61 162.991C195.32 162.991 195.89 163.561 195.89 164.271C195.89 164.981 195.32 165.551 194.61 165.551C193.9 165.551 193.33 164.981 193.33 164.271H190.77C190.77 165.941 191.84 167.361 193.33 167.891V169.391H195.89V167.891C197.38 167.361 198.45 165.941 198.45 164.271C198.45 162.151 196.73 160.431 194.61 160.431C193.9 160.431 193.33 159.861 193.33 159.151C193.33 158.441 193.9 157.871 194.61 157.871V157.871Z" fill="#00C3D9"/>
<path d="M251.95 302.22C270.882 302.22 286.23 286.872 286.23 267.94C286.23 249.008 270.882 233.66 251.95 233.66C233.018 233.66 217.67 249.008 217.67 267.94C217.67 286.872 233.018 302.22 251.95 302.22Z" fill="white"/>
<path d="M265.98 255.21L268.16 253.03L270.13 255L272.1 253.03L266.2 247.13L264.23 249.1L266.2 251.07L263.83 253.44C261.43 251.71 258.71 250.51 255.81 249.93V246.64H258.59V243.86H244.68V246.64H247.46V249.93C244.57 250.51 241.84 251.71 239.44 253.44L237.07 251.07L239.04 249.1L237.07 247.13L231.17 253.03L233.14 255L235.11 253.03L237.29 255.21C233.19 259.1 230.77 264.46 230.77 270.37C230.77 281.93 240.13 291.33 251.63 291.33C263.13 291.33 272.49 281.93 272.49 270.37C272.49 264.75 270.27 259.3 265.97 255.21H265.98ZM250.25 246.63H253.03V249.55C252.57 249.52 252.11 249.5 251.64 249.5C251.17 249.5 250.71 249.52 250.25 249.55V246.63ZM251.64 288.54C241.67 288.54 233.56 280.39 233.56 270.36C233.56 260.33 241.67 252.28 251.64 252.28C261.61 252.28 269.72 260.39 269.72 270.36C269.72 280.33 261.61 288.54 251.64 288.54V288.54Z" fill="#00C3D9"/>
<path d="M253.03 266.44V255.07H250.25V266.44C248.63 267.01 247.47 268.56 247.47 270.37C247.47 272.67 249.34 274.54 251.64 274.54C253.94 274.54 255.81 272.67 255.81 270.37C255.81 268.56 254.65 267.01 253.03 266.44V266.44ZM251.64 271.76C250.87 271.76 250.25 271.14 250.25 270.37C250.25 269.6 250.87 268.98 251.64 268.98C252.41 268.98 253.03 269.6 253.03 270.37C253.03 271.14 252.41 271.76 251.64 271.76Z" fill="#00C3D9"/>
<path d="M250.25 282.89H253.03V285.67H250.25V282.89Z" fill="#00C3D9"/>
<path d="M236.34 268.98H239.12V271.76H236.34V268.98Z" fill="#00C3D9"/>
<path d="M264.16 268.98H266.94V271.76H264.16V268.98Z" fill="#00C3D9"/>
<path d="M241.81 282.17L239.84 280.2L241.81 278.23L243.78 280.2L241.81 282.17Z" fill="#00C3D9"/>
<path d="M261.48 262.5L259.51 260.53L261.48 258.56L263.45 260.53L261.48 262.5Z" fill="#00C3D9"/>
<path d="M261.48 282.17L259.51 280.2L261.48 278.23L263.45 280.2L261.48 282.17Z" fill="#00C3D9"/>
<path d="M241.81 262.5L239.84 260.53L241.81 258.56L243.78 260.53L241.81 262.5Z" fill="#00C3D9"/>
<path d="M251.95 80.65C270.882 80.65 286.23 65.3023 286.23 46.37C286.23 27.4376 270.882 12.09 251.95 12.09C233.018 12.09 217.67 27.4376 217.67 46.37C217.67 65.3023 233.018 80.65 251.95 80.65Z" fill="white"/>
<path d="M246.3 46.1299L251.94 43.1599L257.58 46.1299L256.5 39.8499L261.07 35.3999L254.76 34.4799L251.94 28.7599L249.12 34.4799L242.81 35.3999L247.38 39.8499L246.3 46.1299ZM250.82 36.8199L251.94 34.5499L253.06 36.8199L255.57 37.1799L253.76 38.9499L254.19 41.4499L251.95 40.2699L249.71 41.4499L250.14 38.9499L248.33 37.1799L250.84 36.8199H250.82Z" fill="#00C3D9"/>
<path d="M236.5 30.3699C232.97 30.3699 230.1 33.2399 230.1 36.7699C230.1 40.2999 232.97 43.1699 236.5 43.1699H238.32C239.66 47.8599 243.39 51.5599 248.11 52.8899V58.5399H243.34L240.78 66.3099H237.86V68.8699H266.03V66.3099H263.11L260.55 58.5399H255.78V52.8899C260.46 51.5599 264.16 47.8599 265.49 43.1799H267.39C270.92 43.1799 273.79 40.3099 273.79 36.7799C273.79 33.2499 270.92 30.3799 267.39 30.3799H266.02V27.7299H268.67V25.1699H235.21V27.7299H237.77V30.3799H236.49L236.5 30.3699ZM236.5 40.6099C234.38 40.6099 232.66 38.8899 232.66 36.7699C232.66 34.6499 234.38 32.9299 236.5 32.9299H237.78V39.3299C237.78 39.7599 237.8 40.1899 237.84 40.6099H236.5V40.6099ZM260.42 66.2999H243.47L245.19 61.0899H258.7L260.42 66.2999ZM253.23 58.5299H250.67V53.3499C251.09 53.3899 251.52 53.4099 251.95 53.4099C252.38 53.4099 252.81 53.3899 253.23 53.3499V58.5299V58.5299ZM267.4 32.9199C269.52 32.9199 271.24 34.6399 271.24 36.7599C271.24 38.8799 269.52 40.5999 267.4 40.5999H265.98C266.02 40.1799 266.04 39.7499 266.04 39.3199V32.9199H267.41H267.4ZM263.47 27.7099V39.3199C263.47 45.6699 258.3 50.8399 251.95 50.8399C245.6 50.8399 240.34 45.6699 240.34 39.3199V27.7099H263.47Z" fill="#00C3D9"/>
</g>
<rect x="130" y="152" width="20" height="4" rx="2" fill="#04284A"/>
<rect x="304" y="40" width="20" height="4" rx="2" fill="#04284A"/>
<rect x="304" y="265" width="20" height="4" rx="2" fill="#04284A"/>
<rect x="128" y="376" width="20" height="4" rx="2" fill="#04284A"/>
<rect x="304" y="489" width="20" height="4" rx="2" fill="#04284A"/>
<rect x="128" y="605" width="20" height="4" rx="2" fill="#04284A"/>
<path d="M1.458 612V599.22H3.474V604.566H4.968L8.982 599.22H11.286L6.588 605.412L11.628 612H9.162L4.968 606.42H3.474V612H1.458ZM18.0527 612.09C17.1287 612.09 16.2947 611.91 15.5507 611.55C14.8067 611.19 14.1647 610.704 13.6247 610.092C13.0847 609.468 12.6647 608.772 12.3647 608.004C12.0767 607.224 11.9327 606.426 11.9327 605.61C11.9327 604.758 12.0887 603.948 12.4007 603.18C12.7127 602.4 13.1447 601.71 13.6967 601.11C14.2487 600.498 14.8967 600.018 15.6407 599.67C16.3967 599.31 17.2127 599.13 18.0887 599.13C19.0007 599.13 19.8287 599.316 20.5727 599.688C21.3287 600.06 21.9707 600.558 22.4987 601.182C23.0387 601.806 23.4527 602.502 23.7407 603.27C24.0407 604.038 24.1907 604.824 24.1907 605.628C24.1907 606.48 24.0347 607.296 23.7227 608.076C23.4227 608.844 22.9967 609.534 22.4447 610.146C21.8927 610.746 21.2387 611.22 20.4827 611.568C19.7387 611.916 18.9287 612.09 18.0527 612.09ZM13.9847 605.61C13.9847 606.21 14.0807 606.792 14.2727 607.356C14.4647 607.92 14.7347 608.424 15.0827 608.868C15.4427 609.3 15.8747 609.642 16.3787 609.894C16.8827 610.146 17.4467 610.272 18.0707 610.272C18.7187 610.272 19.2947 610.14 19.7987 609.876C20.3027 609.612 20.7227 609.258 21.0587 608.814C21.4067 608.358 21.6707 607.854 21.8507 607.302C22.0307 606.738 22.1207 606.174 22.1207 605.61C22.1207 605.01 22.0247 604.434 21.8327 603.882C21.6527 603.318 21.3827 602.82 21.0227 602.388C20.6627 601.944 20.2307 601.596 19.7267 601.344C19.2347 601.092 18.6827 600.966 18.0707 600.966C17.4227 600.966 16.8467 601.098 16.3427 601.362C15.8387 601.626 15.4127 601.98 15.0647 602.424C14.7167 602.868 14.4467 603.366 14.2547 603.918C14.0747 604.47 13.9847 605.034 13.9847 605.61ZM36.7719 599.22V612H34.7379V606.366H28.2939V612H26.2779V599.22H28.2939V604.566H34.7379V599.22H36.7719ZM49.2488 614.43V612H39.6548V599.22H41.6708V610.218H47.3768V599.22H49.4108V610.218H51.0308V614.43H49.2488ZM61.8505 610.218V612H53.0845V599.22H61.6885V601.002H55.1005V604.638H60.8065V606.312H55.1005V610.218H61.8505ZM63.9482 612V599.22H74.0462V612H72.0122V601.002H65.9642V612H63.9482ZM86.532 614.43V612H76.938V599.22H78.954V610.218H84.66V599.22H86.694V610.218H88.314V614.43H86.532ZM90.4577 612V599.22H92.4737V609.156L99.2957 599.22H101.186V612H99.1697V602.226L92.4197 612H90.4577ZM103.789 612L107.029 606.762C106.189 606.522 105.535 606.072 105.067 605.412C104.599 604.752 104.365 603.972 104.365 603.072C104.365 602.34 104.539 601.686 104.887 601.11C105.247 600.534 105.745 600.078 106.381 599.742C107.017 599.394 107.755 599.22 108.595 599.22H113.221V612H111.205V607.014H109.549C109.477 607.014 109.399 607.014 109.315 607.014C109.243 607.014 109.171 607.014 109.099 607.014L106.111 612H103.789ZM108.811 605.268H111.205V600.966H108.865C108.409 600.966 107.995 601.05 107.623 601.218C107.251 601.374 106.957 601.608 106.741 601.92C106.537 602.232 106.435 602.616 106.435 603.072C106.435 603.528 106.531 603.918 106.723 604.242C106.915 604.566 107.185 604.818 107.533 604.998C107.893 605.178 108.319 605.268 108.811 605.268Z" fill="#04284A"/>
<path d="M334.594 50.448V46.218H335.206C335.542 46.218 335.83 46.086 336.07 45.822C336.322 45.558 336.532 45.138 336.7 44.562C336.88 43.986 337.018 43.23 337.114 42.294C337.222 41.346 337.3 40.188 337.348 38.82L337.438 35.22H345.664V46.218H347.284V50.448H345.502V48H336.376V50.448H334.594ZM337.762 46.218H343.63V37.002H339.31L339.256 39.09C339.22 40.47 339.148 41.64 339.04 42.6C338.932 43.548 338.776 44.316 338.572 44.904C338.368 45.492 338.098 45.93 337.762 46.218ZM349.434 48V35.22H351.45V45.156L358.272 35.22H360.162V48H358.146V38.226L351.396 48H349.434ZM366.924 48.144C365.952 48.144 365.07 47.94 364.278 47.532C363.498 47.124 362.886 46.56 362.442 45.84L363.99 44.886C364.278 45.378 364.668 45.762 365.16 46.038C365.664 46.302 366.24 46.434 366.888 46.434C367.704 46.434 368.328 46.242 368.76 45.858C369.204 45.474 369.426 44.964 369.426 44.328C369.426 43.92 369.336 43.56 369.156 43.248C368.976 42.924 368.706 42.678 368.346 42.51C367.986 42.33 367.548 42.24 367.032 42.24H365.61V40.674H367.032C367.452 40.674 367.806 40.596 368.094 40.44C368.394 40.272 368.622 40.05 368.778 39.774C368.934 39.486 369.012 39.162 369.012 38.802C369.012 38.43 368.922 38.106 368.742 37.83C368.574 37.542 368.328 37.32 368.004 37.164C367.68 36.996 367.284 36.912 366.816 36.912C366.168 36.912 365.61 37.044 365.142 37.308C364.686 37.572 364.326 37.932 364.062 38.388L362.586 37.362C363.03 36.666 363.6 36.114 364.296 35.706C365.004 35.298 365.874 35.094 366.906 35.094C367.734 35.094 368.448 35.232 369.048 35.508C369.66 35.772 370.134 36.162 370.47 36.678C370.806 37.182 370.974 37.794 370.974 38.514C370.974 39.114 370.824 39.678 370.524 40.206C370.236 40.722 369.786 41.112 369.174 41.376C369.906 41.58 370.47 41.964 370.866 42.528C371.274 43.092 371.478 43.752 371.478 44.508C371.478 45.276 371.28 45.936 370.884 46.488C370.488 47.028 369.948 47.442 369.264 47.73C368.592 48.006 367.812 48.144 366.924 48.144ZM377.046 35.22H378.954L383.922 48H381.798L380.448 44.526H375.516L374.184 48H372.042L377.046 35.22ZM380.052 43.032L378 37.434L375.876 43.032H380.052ZM385.593 48V35.22H387.609V45.156L394.431 35.22H396.321V48H394.305V38.226L387.555 48H385.593ZM390.957 34.356C390.309 34.356 389.751 34.254 389.283 34.05C388.815 33.834 388.461 33.546 388.221 33.186C387.981 32.814 387.861 32.406 387.861 31.962H389.319C389.319 32.286 389.439 32.58 389.679 32.844C389.931 33.108 390.357 33.24 390.957 33.24C391.545 33.24 391.965 33.12 392.217 32.88C392.469 32.64 392.595 32.334 392.595 31.962H394.053C394.053 32.406 393.933 32.814 393.693 33.186C393.453 33.546 393.099 33.834 392.631 34.05C392.175 34.254 391.617 34.356 390.957 34.356ZM409.778 35.22V48H407.744V42.366H401.3V48H399.284V35.22H401.3V40.566H407.744V35.22H409.778Z" fill="#04284A"/>
<path d="M19.458 384V371.22H29.556V384H27.522V373.002H21.474V384H19.458ZM32.4478 384V371.22H37.8118C38.3878 371.22 38.9158 371.34 39.3958 371.58C39.8758 371.82 40.2958 372.138 40.6558 372.534C41.0158 372.93 41.2918 373.374 41.4838 373.866C41.6758 374.358 41.7718 374.862 41.7718 375.378C41.7718 376.086 41.6098 376.764 41.2858 377.412C40.9738 378.048 40.5238 378.564 39.9358 378.96C39.3598 379.356 38.6878 379.554 37.9198 379.554H34.4638V384H32.4478ZM34.4638 377.772H37.7938C38.1778 377.772 38.5138 377.67 38.8018 377.466C39.0898 377.25 39.3118 376.962 39.4678 376.602C39.6358 376.242 39.7198 375.834 39.7198 375.378C39.7198 374.91 39.6238 374.496 39.4318 374.136C39.2398 373.776 38.9878 373.5 38.6758 373.308C38.3758 373.104 38.0458 373.002 37.6858 373.002H34.4638V377.772ZM48.9727 384.09C48.0487 384.09 47.2147 383.91 46.4707 383.55C45.7267 383.19 45.0847 382.704 44.5447 382.092C44.0047 381.468 43.5847 380.772 43.2847 380.004C42.9967 379.224 42.8527 378.426 42.8527 377.61C42.8527 376.758 43.0087 375.948 43.3207 375.18C43.6327 374.4 44.0647 373.71 44.6167 373.11C45.1687 372.498 45.8167 372.018 46.5607 371.67C47.3167 371.31 48.1327 371.13 49.0087 371.13C49.9207 371.13 50.7487 371.316 51.4927 371.688C52.2487 372.06 52.8907 372.558 53.4187 373.182C53.9587 373.806 54.3727 374.502 54.6607 375.27C54.9607 376.038 55.1107 376.824 55.1107 377.628C55.1107 378.48 54.9547 379.296 54.6427 380.076C54.3427 380.844 53.9167 381.534 53.3647 382.146C52.8127 382.746 52.1587 383.22 51.4027 383.568C50.6587 383.916 49.8487 384.09 48.9727 384.09ZM44.9047 377.61C44.9047 378.21 45.0007 378.792 45.1927 379.356C45.3847 379.92 45.6547 380.424 46.0027 380.868C46.3627 381.3 46.7947 381.642 47.2987 381.894C47.8027 382.146 48.3667 382.272 48.9907 382.272C49.6387 382.272 50.2147 382.14 50.7187 381.876C51.2227 381.612 51.6427 381.258 51.9787 380.814C52.3267 380.358 52.5907 379.854 52.7707 379.302C52.9507 378.738 53.0407 378.174 53.0407 377.61C53.0407 377.01 52.9447 376.434 52.7527 375.882C52.5727 375.318 52.3027 374.82 51.9427 374.388C51.5827 373.944 51.1507 373.596 50.6467 373.344C50.1547 373.092 49.6027 372.966 48.9907 372.966C48.3427 372.966 47.7667 373.098 47.2627 373.362C46.7587 373.626 46.3327 373.98 45.9847 374.424C45.6367 374.868 45.3667 375.366 45.1747 375.918C44.9947 376.47 44.9047 377.034 44.9047 377.61ZM66.2243 373.002H61.9763V384H59.9423V373.002H55.6763V371.22H66.2243V373.002ZM72.8965 384.09C71.9725 384.09 71.1385 383.91 70.3945 383.55C69.6505 383.19 69.0085 382.704 68.4685 382.092C67.9285 381.468 67.5085 380.772 67.2085 380.004C66.9205 379.224 66.7765 378.426 66.7765 377.61C66.7765 376.758 66.9325 375.948 67.2445 375.18C67.5565 374.4 67.9885 373.71 68.5405 373.11C69.0925 372.498 69.7405 372.018 70.4845 371.67C71.2405 371.31 72.0565 371.13 72.9325 371.13C73.8445 371.13 74.6725 371.316 75.4165 371.688C76.1725 372.06 76.8145 372.558 77.3425 373.182C77.8825 373.806 78.2965 374.502 78.5845 375.27C78.8845 376.038 79.0345 376.824 79.0345 377.628C79.0345 378.48 78.8785 379.296 78.5665 380.076C78.2665 380.844 77.8405 381.534 77.2885 382.146C76.7365 382.746 76.0825 383.22 75.3265 383.568C74.5825 383.916 73.7725 384.09 72.8965 384.09ZM68.8285 377.61C68.8285 378.21 68.9245 378.792 69.1165 379.356C69.3085 379.92 69.5785 380.424 69.9265 380.868C70.2865 381.3 70.7185 381.642 71.2225 381.894C71.7265 382.146 72.2905 382.272 72.9145 382.272C73.5625 382.272 74.1385 382.14 74.6425 381.876C75.1465 381.612 75.5665 381.258 75.9025 380.814C76.2505 380.358 76.5145 379.854 76.6945 379.302C76.8745 378.738 76.9645 378.174 76.9645 377.61C76.9645 377.01 76.8685 376.434 76.6765 375.882C76.4965 375.318 76.2265 374.82 75.8665 374.388C75.5065 373.944 75.0745 373.596 74.5705 373.344C74.0785 373.092 73.5265 372.966 72.9145 372.966C72.2665 372.966 71.6905 373.098 71.1865 373.362C70.6825 373.626 70.2565 373.98 69.9085 374.424C69.5605 374.868 69.2905 375.366 69.0985 375.918C68.9185 376.47 68.8285 377.034 68.8285 377.61ZM90.1481 373.002H85.9001V384H83.8661V373.002H79.6001V371.22H90.1481V373.002ZM91.9519 384V371.22H93.9679V381.156L100.79 371.22H102.68V384H100.664V374.226L93.9139 384H91.9519ZM105.661 384V371.22H115.759V384H113.725V373.002H107.677V384H105.661Z" fill="#04284A"/>
<path d="M22.44 160V147.22H27.804C28.38 147.22 28.908 147.34 29.388 147.58C29.868 147.82 30.288 148.138 30.648 148.534C31.008 148.93 31.284 149.374 31.476 149.866C31.668 150.358 31.764 150.862 31.764 151.378C31.764 152.086 31.602 152.764 31.278 153.412C30.966 154.048 30.516 154.564 29.928 154.96C29.352 155.356 28.68 155.554 27.912 155.554H24.456V160H22.44ZM24.456 153.772H27.786C28.17 153.772 28.506 153.67 28.794 153.466C29.082 153.25 29.304 152.962 29.46 152.602C29.628 152.242 29.712 151.834 29.712 151.378C29.712 150.91 29.616 150.496 29.424 150.136C29.232 149.776 28.98 149.5 28.668 149.308C28.368 149.104 28.038 149.002 27.678 149.002H24.456V153.772ZM36.4308 147.22H38.3388L43.3068 160H41.1828L39.8328 156.526H34.9008L33.5688 160H31.4268L36.4308 147.22ZM39.4368 155.032L37.3848 149.434L35.2608 155.032H39.4368ZM43.5851 153.52C43.5851 152.74 43.7231 151.978 43.9991 151.234C44.2751 150.478 44.6771 149.794 45.2051 149.182C45.7451 148.558 46.3991 148.066 47.1671 147.706C47.9351 147.334 48.8051 147.148 49.7771 147.148C50.9291 147.148 51.9251 147.412 52.7651 147.94C53.6051 148.456 54.2291 149.122 54.6371 149.938L53.0531 151C52.8131 150.484 52.5071 150.076 52.1351 149.776C51.7751 149.476 51.3791 149.266 50.9471 149.146C50.5271 149.026 50.1131 148.966 49.7051 148.966C49.0331 148.966 48.4451 149.104 47.9411 149.38C47.4371 149.644 47.0111 149.998 46.6631 150.442C46.3271 150.886 46.0691 151.384 45.8891 151.936C45.7211 152.488 45.6371 153.04 45.6371 153.592C45.6371 154.204 45.7391 154.798 45.9431 155.374C46.1471 155.938 46.4291 156.442 46.7891 156.886C47.1611 157.318 47.5991 157.66 48.1031 157.912C48.6071 158.164 49.1591 158.29 49.7591 158.29C50.1671 158.29 50.5931 158.218 51.0371 158.074C51.4811 157.93 51.8891 157.708 52.2611 157.408C52.6451 157.096 52.9451 156.688 53.1611 156.184L54.8351 157.138C54.5711 157.774 54.1571 158.314 53.5931 158.758C53.0411 159.202 52.4171 159.538 51.7211 159.766C51.0371 159.994 50.3591 160.108 49.6871 160.108C48.7871 160.108 47.9651 159.922 47.2211 159.55C46.4771 159.166 45.8351 158.662 45.2951 158.038C44.7551 157.402 44.3351 156.694 44.0351 155.914C43.7351 155.122 43.5851 154.324 43.5851 153.52ZM66.2938 162.43V160H56.6998V147.22H58.7158V158.218H64.4218V147.22H66.4558V158.218H68.0758V162.43H66.2938ZM78.8955 158.218V160H70.1295V147.22H78.7335V149.002H72.1455V152.638H77.8515V154.312H72.1455V158.218H78.8955ZM91.4692 147.22V160H89.4352V154.366H82.9912V160H80.9752V147.22H82.9912V152.566H89.4352V147.22H91.4692ZM94.3701 160V147.22H96.3861V152.566H97.8801L101.894 147.22H104.198L99.5001 153.412L104.54 160H102.074L97.8801 154.42H96.3861V160H94.3701ZM110.083 147.22H111.991L116.959 160H114.835L113.485 156.526H108.553L107.221 160H105.079L110.083 147.22ZM113.089 155.032L111.037 149.434L108.913 155.032H113.089Z" fill="#04284A"/>
<path d="M344.818 262.002H340.57V273H338.536V262.002H334.27V260.22H344.818V262.002ZM355.298 271.218V273H346.532V260.22H355.136V262.002H348.548V265.638H354.254V267.312H348.548V271.218H355.298ZM356.339 266.52C356.339 265.74 356.477 264.978 356.753 264.234C357.029 263.478 357.431 262.794 357.959 262.182C358.499 261.558 359.153 261.066 359.921 260.706C360.689 260.334 361.559 260.148 362.531 260.148C363.683 260.148 364.679 260.412 365.519 260.94C366.359 261.456 366.983 262.122 367.391 262.938L365.807 264C365.567 263.484 365.261 263.076 364.889 262.776C364.529 262.476 364.133 262.266 363.701 262.146C363.281 262.026 362.867 261.966 362.459 261.966C361.787 261.966 361.199 262.104 360.695 262.38C360.191 262.644 359.765 262.998 359.417 263.442C359.081 263.886 358.823 264.384 358.643 264.936C358.475 265.488 358.391 266.04 358.391 266.592C358.391 267.204 358.493 267.798 358.697 268.374C358.901 268.938 359.183 269.442 359.543 269.886C359.915 270.318 360.353 270.66 360.857 270.912C361.361 271.164 361.913 271.29 362.513 271.29C362.921 271.29 363.347 271.218 363.791 271.074C364.235 270.93 364.643 270.708 365.015 270.408C365.399 270.096 365.699 269.688 365.915 269.184L367.589 270.138C367.325 270.774 366.911 271.314 366.347 271.758C365.795 272.202 365.171 272.538 364.475 272.766C363.791 272.994 363.113 273.108 362.441 273.108C361.541 273.108 360.719 272.922 359.975 272.55C359.231 272.166 358.589 271.662 358.049 271.038C357.509 270.402 357.089 269.694 356.789 268.914C356.489 268.122 356.339 267.324 356.339 266.52ZM378.832 262.002H374.584V273H372.55V262.002H368.284V260.22H378.832V262.002ZM385.504 273.09C384.58 273.09 383.746 272.91 383.002 272.55C382.258 272.19 381.616 271.704 381.076 271.092C380.536 270.468 380.116 269.772 379.816 269.004C379.528 268.224 379.384 267.426 379.384 266.61C379.384 265.758 379.54 264.948 379.852 264.18C380.164 263.4 380.596 262.71 381.148 262.11C381.7 261.498 382.348 261.018 383.092 260.67C383.848 260.31 384.664 260.13 385.54 260.13C386.452 260.13 387.28 260.316 388.024 260.688C388.78 261.06 389.422 261.558 389.95 262.182C390.49 262.806 390.904 263.502 391.192 264.27C391.492 265.038 391.642 265.824 391.642 266.628C391.642 267.48 391.486 268.296 391.174 269.076C390.874 269.844 390.448 270.534 389.896 271.146C389.344 271.746 388.69 272.22 387.934 272.568C387.19 272.916 386.38 273.09 385.504 273.09ZM381.436 266.61C381.436 267.21 381.532 267.792 381.724 268.356C381.916 268.92 382.186 269.424 382.534 269.868C382.894 270.3 383.326 270.642 383.83 270.894C384.334 271.146 384.898 271.272 385.522 271.272C386.17 271.272 386.746 271.14 387.25 270.876C387.754 270.612 388.174 270.258 388.51 269.814C388.858 269.358 389.122 268.854 389.302 268.302C389.482 267.738 389.572 267.174 389.572 266.61C389.572 266.01 389.476 265.434 389.284 264.882C389.104 264.318 388.834 263.82 388.474 263.388C388.114 262.944 387.682 262.596 387.178 262.344C386.686 262.092 386.134 261.966 385.522 261.966C384.874 261.966 384.298 262.098 383.794 262.362C383.29 262.626 382.864 262.98 382.516 263.424C382.168 263.868 381.898 264.366 381.706 264.918C381.526 265.47 381.436 266.034 381.436 266.61ZM403.773 269.706C403.773 270.39 403.593 270.978 403.233 271.47C402.885 271.962 402.411 272.34 401.811 272.604C401.211 272.868 400.551 273 399.831 273H393.729V260.22H400.317C400.917 260.22 401.433 260.382 401.865 260.706C402.309 261.018 402.645 261.426 402.873 261.93C403.113 262.422 403.233 262.938 403.233 263.478C403.233 264.102 403.071 264.69 402.747 265.242C402.435 265.782 401.985 266.184 401.397 266.448C402.129 266.664 402.705 267.06 403.125 267.636C403.557 268.2 403.773 268.89 403.773 269.706ZM401.703 269.328C401.703 268.968 401.625 268.644 401.469 268.356C401.325 268.056 401.121 267.816 400.857 267.636C400.605 267.444 400.305 267.348 399.957 267.348H395.745V271.254H399.831C400.191 271.254 400.509 271.17 400.785 271.002C401.073 270.822 401.295 270.588 401.451 270.3C401.619 270 401.703 269.676 401.703 269.328ZM395.745 261.966V265.728H399.453C399.789 265.728 400.089 265.65 400.353 265.494C400.617 265.326 400.827 265.104 400.983 264.828C401.139 264.54 401.217 264.216 401.217 263.856C401.217 263.484 401.145 263.16 401.001 262.884C400.857 262.596 400.659 262.374 400.407 262.218C400.167 262.05 399.885 261.966 399.561 261.966H395.745ZM405.876 273V260.22H407.892V264.936H410.754C411.69 264.936 412.476 265.104 413.112 265.44C413.76 265.764 414.246 266.226 414.57 266.826C414.906 267.426 415.074 268.134 415.074 268.95C415.074 269.718 414.912 270.414 414.588 271.038C414.264 271.65 413.79 272.13 413.166 272.478C412.542 272.826 411.78 273 410.88 273H405.876ZM407.892 271.326H410.592C411.156 271.326 411.618 271.218 411.978 271.002C412.338 270.786 412.596 270.498 412.752 270.138C412.92 269.766 413.004 269.37 413.004 268.95C413.004 268.542 412.926 268.158 412.77 267.798C412.626 267.438 412.374 267.15 412.014 266.934C411.666 266.718 411.186 266.61 410.574 266.61H407.892V271.326ZM417.09 273V260.238H419.124V273H417.09ZM422.067 273V260.22H424.083V270.156L430.905 260.22H432.795V273H430.779V263.226L424.029 273H422.067ZM427.431 259.356C426.783 259.356 426.225 259.254 425.757 259.05C425.289 258.834 424.935 258.546 424.695 258.186C424.455 257.814 424.335 257.406 424.335 256.962H425.793C425.793 257.286 425.913 257.58 426.153 257.844C426.405 258.108 426.831 258.24 427.431 258.24C428.019 258.24 428.439 258.12 428.691 257.88C428.943 257.64 429.069 257.334 429.069 256.962H430.527C430.527 257.406 430.407 257.814 430.167 258.186C429.927 258.546 429.573 258.834 429.105 259.05C428.649 259.254 428.091 259.356 427.431 259.356ZM444.004 273.144C443.032 273.144 442.15 272.94 441.358 272.532C440.578 272.124 439.966 271.56 439.522 270.84L441.07 269.886C441.358 270.378 441.748 270.762 442.24 271.038C442.744 271.302 443.32 271.434 443.968 271.434C444.784 271.434 445.408 271.242 445.84 270.858C446.284 270.474 446.506 269.964 446.506 269.328C446.506 268.92 446.416 268.56 446.236 268.248C446.056 267.924 445.786 267.678 445.426 267.51C445.066 267.33 444.628 267.24 444.112 267.24H442.69V265.674H444.112C444.532 265.674 444.886 265.596 445.174 265.44C445.474 265.272 445.702 265.05 445.858 264.774C446.014 264.486 446.092 264.162 446.092 263.802C446.092 263.43 446.002 263.106 445.822 262.83C445.654 262.542 445.408 262.32 445.084 262.164C444.76 261.996 444.364 261.912 443.896 261.912C443.248 261.912 442.69 262.044 442.222 262.308C441.766 262.572 441.406 262.932 441.142 263.388L439.666 262.362C440.11 261.666 440.68 261.114 441.376 260.706C442.084 260.298 442.954 260.094 443.986 260.094C444.814 260.094 445.528 260.232 446.128 260.508C446.74 260.772 447.214 261.162 447.55 261.678C447.886 262.182 448.054 262.794 448.054 263.514C448.054 264.114 447.904 264.678 447.604 265.206C447.316 265.722 446.866 266.112 446.254 266.376C446.986 266.58 447.55 266.964 447.946 267.528C448.354 268.092 448.558 268.752 448.558 269.508C448.558 270.276 448.36 270.936 447.964 271.488C447.568 272.028 447.028 272.442 446.344 272.73C445.672 273.006 444.892 273.144 444.004 273.144ZM454.126 260.22H456.034L461.002 273H458.878L457.528 269.526H452.596L451.264 273H449.122L454.126 260.22ZM457.132 268.032L455.08 262.434L452.956 268.032H457.132ZM462.601 273V260.22H472.699V273H470.665V262.002H464.617V273H462.601ZM476.886 273.072V271.38H477.804C478.104 271.38 478.332 271.308 478.488 271.164C478.644 271.02 478.794 270.804 478.938 270.516L479.316 269.688L474.114 260.22H476.346L480.234 267.618L483.528 260.22H485.67L480.486 271.47C480.198 272.058 479.88 272.472 479.532 272.712C479.196 272.952 478.734 273.072 478.146 273.072H476.886ZM486.118 266.52C486.118 265.74 486.256 264.978 486.532 264.234C486.808 263.478 487.21 262.794 487.738 262.182C488.278 261.558 488.932 261.066 489.7 260.706C490.468 260.334 491.338 260.148 492.31 260.148C493.462 260.148 494.458 260.412 495.298 260.94C496.138 261.456 496.762 262.122 497.17 262.938L495.586 264C495.346 263.484 495.04 263.076 494.668 262.776C494.308 262.476 493.912 262.266 493.48 262.146C493.06 262.026 492.646 261.966 492.238 261.966C491.566 261.966 490.978 262.104 490.474 262.38C489.97 262.644 489.544 262.998 489.196 263.442C488.86 263.886 488.602 264.384 488.422 264.936C488.254 265.488 488.17 266.04 488.17 266.592C488.17 267.204 488.272 267.798 488.476 268.374C488.68 268.938 488.962 269.442 489.322 269.886C489.694 270.318 490.132 270.66 490.636 270.912C491.14 271.164 491.692 271.29 492.292 271.29C492.7 271.29 493.126 271.218 493.57 271.074C494.014 270.93 494.422 270.708 494.794 270.408C495.178 270.096 495.478 269.688 495.694 269.184L497.368 270.138C497.104 270.774 496.69 271.314 496.126 271.758C495.574 272.202 494.95 272.538 494.254 272.766C493.57 272.994 492.892 273.108 492.22 273.108C491.32 273.108 490.498 272.922 489.754 272.55C489.01 272.166 488.368 271.662 487.828 271.038C487.288 270.402 486.868 269.694 486.568 268.914C486.268 268.122 486.118 267.324 486.118 266.52ZM499.251 273V260.22H501.267V265.566H502.761L506.775 260.22H509.079L504.381 266.412L509.421 273H506.955L502.761 267.42H501.267V273H499.251Z" fill="#04284A"/>
<path d="M335.458 497V484.22H345.556V497H343.522V486.002H337.474V497H335.458ZM348.448 497V484.22H353.812C354.388 484.22 354.916 484.34 355.396 484.58C355.876 484.82 356.296 485.138 356.656 485.534C357.016 485.93 357.292 486.374 357.484 486.866C357.676 487.358 357.772 487.862 357.772 488.378C357.772 489.086 357.61 489.764 357.286 490.412C356.974 491.048 356.524 491.564 355.936 491.96C355.36 492.356 354.688 492.554 353.92 492.554H350.464V497H348.448ZM350.464 490.772H353.794C354.178 490.772 354.514 490.67 354.802 490.466C355.09 490.25 355.312 489.962 355.468 489.602C355.636 489.242 355.72 488.834 355.72 488.378C355.72 487.91 355.624 487.496 355.432 487.136C355.24 486.776 354.988 486.5 354.676 486.308C354.376 486.104 354.046 486.002 353.686 486.002H350.464V490.772ZM364.973 497.09C364.049 497.09 363.215 496.91 362.471 496.55C361.727 496.19 361.085 495.704 360.545 495.092C360.005 494.468 359.585 493.772 359.285 493.004C358.997 492.224 358.853 491.426 358.853 490.61C358.853 489.758 359.009 488.948 359.321 488.18C359.633 487.4 360.065 486.71 360.617 486.11C361.169 485.498 361.817 485.018 362.561 484.67C363.317 484.31 364.133 484.13 365.009 484.13C365.921 484.13 366.749 484.316 367.493 484.688C368.249 485.06 368.891 485.558 369.419 486.182C369.959 486.806 370.373 487.502 370.661 488.27C370.961 489.038 371.111 489.824 371.111 490.628C371.111 491.48 370.955 492.296 370.643 493.076C370.343 493.844 369.917 494.534 369.365 495.146C368.813 495.746 368.159 496.22 367.403 496.568C366.659 496.916 365.849 497.09 364.973 497.09ZM360.905 490.61C360.905 491.21 361.001 491.792 361.193 492.356C361.385 492.92 361.655 493.424 362.003 493.868C362.363 494.3 362.795 494.642 363.299 494.894C363.803 495.146 364.367 495.272 364.991 495.272C365.639 495.272 366.215 495.14 366.719 494.876C367.223 494.612 367.643 494.258 367.979 493.814C368.327 493.358 368.591 492.854 368.771 492.302C368.951 491.738 369.041 491.174 369.041 490.61C369.041 490.01 368.945 489.434 368.753 488.882C368.573 488.318 368.303 487.82 367.943 487.388C367.583 486.944 367.151 486.596 366.647 486.344C366.155 486.092 365.603 485.966 364.991 485.966C364.343 485.966 363.767 486.098 363.263 486.362C362.759 486.626 362.333 486.98 361.985 487.424C361.637 487.868 361.367 488.366 361.175 488.918C360.995 489.47 360.905 490.034 360.905 490.61ZM373.288 497V484.22H375.304V494.156L382.126 484.22H384.016V497H382V487.226L375.25 497H373.288ZM390.777 497.144C389.805 497.144 388.923 496.94 388.131 496.532C387.351 496.124 386.739 495.56 386.295 494.84L387.843 493.886C388.131 494.378 388.521 494.762 389.013 495.038C389.517 495.302 390.093 495.434 390.741 495.434C391.557 495.434 392.181 495.242 392.613 494.858C393.057 494.474 393.279 493.964 393.279 493.328C393.279 492.92 393.189 492.56 393.009 492.248C392.829 491.924 392.559 491.678 392.199 491.51C391.839 491.33 391.401 491.24 390.885 491.24H389.463V489.674H390.885C391.305 489.674 391.659 489.596 391.947 489.44C392.247 489.272 392.475 489.05 392.631 488.774C392.787 488.486 392.865 488.162 392.865 487.802C392.865 487.43 392.775 487.106 392.595 486.83C392.427 486.542 392.181 486.32 391.857 486.164C391.533 485.996 391.137 485.912 390.669 485.912C390.021 485.912 389.463 486.044 388.995 486.308C388.539 486.572 388.179 486.932 387.915 487.388L386.439 486.362C386.883 485.666 387.453 485.114 388.149 484.706C388.857 484.298 389.727 484.094 390.759 484.094C391.587 484.094 392.301 484.232 392.901 484.508C393.513 484.772 393.987 485.162 394.323 485.678C394.659 486.182 394.827 486.794 394.827 487.514C394.827 488.114 394.677 488.678 394.377 489.206C394.089 489.722 393.639 490.112 393.027 490.376C393.759 490.58 394.323 490.964 394.719 491.528C395.127 492.092 395.331 492.752 395.331 493.508C395.331 494.276 395.133 494.936 394.737 495.488C394.341 496.028 393.801 496.442 393.117 496.73C392.445 497.006 391.665 497.144 390.777 497.144ZM407.535 493.706C407.535 494.39 407.355 494.978 406.995 495.47C406.647 495.962 406.173 496.34 405.573 496.604C404.973 496.868 404.313 497 403.593 497H397.491V484.22H404.079C404.679 484.22 405.195 484.382 405.627 484.706C406.071 485.018 406.407 485.426 406.635 485.93C406.875 486.422 406.995 486.938 406.995 487.478C406.995 488.102 406.833 488.69 406.509 489.242C406.197 489.782 405.747 490.184 405.159 490.448C405.891 490.664 406.467 491.06 406.887 491.636C407.319 492.2 407.535 492.89 407.535 493.706ZM405.465 493.328C405.465 492.968 405.387 492.644 405.231 492.356C405.087 492.056 404.883 491.816 404.619 491.636C404.367 491.444 404.067 491.348 403.719 491.348H399.507V495.254H403.593C403.953 495.254 404.271 495.17 404.547 495.002C404.835 494.822 405.057 494.588 405.213 494.3C405.381 494 405.465 493.676 405.465 493.328ZM399.507 485.966V489.728H403.215C403.551 489.728 403.851 489.65 404.115 489.494C404.379 489.326 404.589 489.104 404.745 488.828C404.901 488.54 404.979 488.216 404.979 487.856C404.979 487.484 404.907 487.16 404.763 486.884C404.619 486.596 404.421 486.374 404.169 486.218C403.929 486.05 403.647 485.966 403.323 485.966H399.507ZM414.947 497.09C414.023 497.09 413.189 496.91 412.445 496.55C411.701 496.19 411.059 495.704 410.519 495.092C409.979 494.468 409.559 493.772 409.259 493.004C408.971 492.224 408.827 491.426 408.827 490.61C408.827 489.758 408.983 488.948 409.295 488.18C409.607 487.4 410.039 486.71 410.591 486.11C411.143 485.498 411.791 485.018 412.535 484.67C413.291 484.31 414.107 484.13 414.983 484.13C415.895 484.13 416.723 484.316 417.467 484.688C418.223 485.06 418.865 485.558 419.393 486.182C419.933 486.806 420.347 487.502 420.635 488.27C420.935 489.038 421.085 489.824 421.085 490.628C421.085 491.48 420.929 492.296 420.617 493.076C420.317 493.844 419.891 494.534 419.339 495.146C418.787 495.746 418.133 496.22 417.377 496.568C416.633 496.916 415.823 497.09 414.947 497.09ZM410.879 490.61C410.879 491.21 410.975 491.792 411.167 492.356C411.359 492.92 411.629 493.424 411.977 493.868C412.337 494.3 412.769 494.642 413.273 494.894C413.777 495.146 414.341 495.272 414.965 495.272C415.613 495.272 416.189 495.14 416.693 494.876C417.197 494.612 417.617 494.258 417.953 493.814C418.301 493.358 418.565 492.854 418.745 492.302C418.925 491.738 419.015 491.174 419.015 490.61C419.015 490.01 418.919 489.434 418.727 488.882C418.547 488.318 418.277 487.82 417.917 487.388C417.557 486.944 417.125 486.596 416.621 486.344C416.129 486.092 415.577 485.966 414.965 485.966C414.317 485.966 413.741 486.098 413.237 486.362C412.733 486.626 412.307 486.98 411.959 487.424C411.611 487.868 411.341 488.366 411.149 488.918C410.969 489.47 410.879 490.034 410.879 490.61ZM422.326 499.448V495.218H422.938C423.274 495.218 423.562 495.086 423.802 494.822C424.054 494.558 424.264 494.138 424.432 493.562C424.612 492.986 424.75 492.23 424.846 491.294C424.954 490.346 425.032 489.188 425.08 487.82L425.17 484.22H433.396V495.218H435.016V499.448H433.234V497H424.108V499.448H422.326ZM425.494 495.218H431.362V486.002H427.042L426.988 488.09C426.952 489.47 426.88 490.64 426.772 491.6C426.664 492.548 426.508 493.316 426.304 493.904C426.1 494.492 425.83 494.93 425.494 495.218ZM436.267 490.52C436.267 489.74 436.405 488.978 436.681 488.234C436.957 487.478 437.359 486.794 437.887 486.182C438.427 485.558 439.081 485.066 439.849 484.706C440.617 484.334 441.487 484.148 442.459 484.148C443.611 484.148 444.607 484.412 445.447 484.94C446.287 485.456 446.911 486.122 447.319 486.938L445.735 488C445.495 487.484 445.189 487.076 444.817 486.776C444.457 486.476 444.061 486.266 443.629 486.146C443.209 486.026 442.795 485.966 442.387 485.966C441.715 485.966 441.127 486.104 440.623 486.38C440.119 486.644 439.693 486.998 439.345 487.442C439.009 487.886 438.751 488.384 438.571 488.936C438.403 489.488 438.319 490.04 438.319 490.592C438.319 491.204 438.421 491.798 438.625 492.374C438.829 492.938 439.111 493.442 439.471 493.886C439.843 494.318 440.281 494.66 440.785 494.912C441.289 495.164 441.841 495.29 442.441 495.29C442.849 495.29 443.275 495.218 443.719 495.074C444.163 494.93 444.571 494.708 444.943 494.408C445.327 494.096 445.627 493.688 445.843 493.184L447.517 494.138C447.253 494.774 446.839 495.314 446.275 495.758C445.723 496.202 445.099 496.538 444.403 496.766C443.719 496.994 443.041 497.108 442.369 497.108C441.469 497.108 440.647 496.922 439.903 496.55C439.159 496.166 438.517 495.662 437.977 495.038C437.437 494.402 437.017 493.694 436.717 492.914C436.417 492.122 436.267 491.324 436.267 490.52ZM458.759 486.002H454.511V497H452.477V486.002H448.211V484.22H458.759V486.002ZM470.517 493.706C470.517 494.39 470.337 494.978 469.977 495.47C469.629 495.962 469.155 496.34 468.555 496.604C467.955 496.868 467.295 497 466.575 497H460.473V484.22H467.061C467.661 484.22 468.177 484.382 468.609 484.706C469.053 485.018 469.389 485.426 469.617 485.93C469.857 486.422 469.977 486.938 469.977 487.478C469.977 488.102 469.815 488.69 469.491 489.242C469.179 489.782 468.729 490.184 468.141 490.448C468.873 490.664 469.449 491.06 469.869 491.636C470.301 492.2 470.517 492.89 470.517 493.706ZM468.447 493.328C468.447 492.968 468.369 492.644 468.213 492.356C468.069 492.056 467.865 491.816 467.601 491.636C467.349 491.444 467.049 491.348 466.701 491.348H462.489V495.254H466.575C466.935 495.254 467.253 495.17 467.529 495.002C467.817 494.822 468.039 494.588 468.195 494.3C468.363 494 468.447 493.676 468.447 493.328ZM462.489 485.966V489.728H466.197C466.533 489.728 466.833 489.65 467.097 489.494C467.361 489.326 467.571 489.104 467.727 488.828C467.883 488.54 467.961 488.216 467.961 487.856C467.961 487.484 467.889 487.16 467.745 486.884C467.601 486.596 467.403 486.374 467.151 486.218C466.911 486.05 466.629 485.966 466.305 485.966H462.489ZM477.93 497.09C477.006 497.09 476.172 496.91 475.428 496.55C474.684 496.19 474.042 495.704 473.502 495.092C472.962 494.468 472.542 493.772 472.242 493.004C471.954 492.224 471.81 491.426 471.81 490.61C471.81 489.758 471.966 488.948 472.278 488.18C472.59 487.4 473.022 486.71 473.574 486.11C474.126 485.498 474.774 485.018 475.518 484.67C476.274 484.31 477.09 484.13 477.966 484.13C478.878 484.13 479.706 484.316 480.45 484.688C481.206 485.06 481.848 485.558 482.376 486.182C482.916 486.806 483.33 487.502 483.618 488.27C483.918 489.038 484.068 489.824 484.068 490.628C484.068 491.48 483.912 492.296 483.6 493.076C483.3 493.844 482.874 494.534 482.322 495.146C481.77 495.746 481.116 496.22 480.36 496.568C479.616 496.916 478.806 497.09 477.93 497.09ZM473.862 490.61C473.862 491.21 473.958 491.792 474.15 492.356C474.342 492.92 474.612 493.424 474.96 493.868C475.32 494.3 475.752 494.642 476.256 494.894C476.76 495.146 477.324 495.272 477.948 495.272C478.596 495.272 479.172 495.14 479.676 494.876C480.18 494.612 480.6 494.258 480.936 493.814C481.284 493.358 481.548 492.854 481.728 492.302C481.908 491.738 481.998 491.174 481.998 490.61C481.998 490.01 481.902 489.434 481.71 488.882C481.53 488.318 481.26 487.82 480.9 487.388C480.54 486.944 480.108 486.596 479.604 486.344C479.112 486.092 478.56 485.966 477.948 485.966C477.3 485.966 476.724 486.098 476.22 486.362C475.716 486.626 475.29 486.98 474.942 487.424C474.594 487.868 474.324 488.366 474.132 488.918C473.952 489.47 473.862 490.034 473.862 490.61Z" fill="#04284A"/>
<defs>
<clipPath id="clip0_56_37">
<rect width="646.68" height="142.33" fill="white" transform="translate(156 646.68) rotate(-90)"/>
</clipPath>
</defs>
</svg>
