<svg width="44" height="43" viewBox="0 0 44 43" fill="none" xmlns="http://www.w3.org/2000/svg">
<path fill-rule="evenodd" clip-rule="evenodd" d="M0.55439 21.2772C0.55439 9.52612 10.0805 0 21.8316 0C33.5827 0 43.1088 9.52612 43.1088 21.2772C43.1088 33.0283 33.5827 42.5544 21.8316 42.5544C10.0805 42.5544 0.55439 33.0283 0.55439 21.2772ZM29.9435 15.293C30.8744 15.16 31.6723 15.027 32.4702 14.6281C31.9383 15.5589 31.1404 16.3568 30.2095 16.8888C30.4754 23.1389 25.954 29.9211 17.8421 29.9211C15.4484 29.9211 13.1877 29.1232 11.193 27.9263C13.4537 28.1923 15.8474 27.5274 17.4432 26.3305C15.4484 26.3305 13.8526 25.0007 13.3207 23.2719C13.9856 23.4049 14.6505 23.2719 15.3154 23.1389C13.3207 22.607 11.8579 20.7453 11.8579 18.7505C12.5228 19.0165 13.1877 19.2825 13.8526 19.2825C11.9909 17.9526 11.326 15.426 12.5228 13.4312C14.7835 16.0909 17.9751 17.8197 21.5656 17.9526C20.9007 15.293 23.0284 12.6333 25.8211 12.6333C27.0179 12.6333 28.2147 13.1653 29.0126 13.9632C30.0765 13.6972 31.0074 13.4312 31.8053 12.8993C31.5393 13.9632 30.8744 14.7611 29.9435 15.293Z" fill="white"/>
</svg>
