<svg width="44" height="43" viewBox="0 0 44 43" fill="none" xmlns="http://www.w3.org/2000/svg">
<path fill-rule="evenodd" clip-rule="evenodd" d="M43.3263 21.2772C43.3263 9.52612 33.8002 0 22.0491 0C10.2981 0 0.771942 9.52612 0.771942 21.2772C0.771942 33.0283 10.2981 42.5544 22.0491 42.5544C33.8002 42.5544 43.3263 33.0283 43.3263 21.2772ZM12.8999 12.128C11.4105 13.6316 11.4105 16.0359 11.4105 20.8517V21.7027C11.4105 26.5114 11.4105 28.9157 12.8999 30.4264C14.4035 31.9158 16.8079 31.9158 21.6236 31.9158H22.4747C27.2833 31.9158 29.6877 31.9158 31.1983 30.4264C32.6877 28.9228 32.6877 26.5185 32.6877 21.7027V20.8517C32.6877 16.043 32.6877 13.6387 31.1983 12.128C29.6947 10.6386 27.2904 10.6386 22.4747 10.6386H21.6236C16.8149 10.6386 14.4106 10.6386 12.8999 12.128Z" fill="white"/>
<path d="M22.73 25.9653C17.8788 25.9653 15.1128 22.646 14.9993 17.114H17.4391C17.5171 21.1708 19.3044 22.8872 20.7229 23.2418V17.114H23.0137V20.6105C24.4109 20.4616 25.8861 18.8658 26.3826 17.1069H28.6663C28.4801 18.0174 28.1082 18.8797 27.5737 19.64C27.0392 20.4002 26.3536 21.0421 25.5599 21.5254C26.4457 21.9663 27.2279 22.59 27.8551 23.3553C28.4822 24.1206 28.94 25.0101 29.1983 25.9653H26.6805C26.1415 24.2844 24.7939 22.9794 23.0137 22.8021V25.9653H22.73Z" fill="white"/>
</svg>
