<svg width="40" height="40" viewBox="0 0 40 40" fill="none" xmlns="http://www.w3.org/2000/svg">
<path d="M20 26.25C21.9722 26.25 23.6458 25.5625 25.0208 24.1875C26.3958 22.8125 27.0833 21.1388 27.0833 19.1666C27.0833 17.1944 26.3958 15.5208 25.0208 14.1458C23.6458 12.7708 21.9722 12.0833 20 12.0833C18.0278 12.0833 16.3542 12.7708 14.9792 14.1458C13.6042 15.5208 12.9167 17.1944 12.9167 19.1666C12.9167 21.1388 13.6042 22.8125 14.9792 24.1875C16.3542 25.5625 18.0278 26.25 20 26.25ZM20 23.8333C18.6944 23.8333 17.5903 23.3819 16.6875 22.4791C15.7847 21.5763 15.3333 20.4722 15.3333 19.1666C15.3333 17.8611 15.7847 16.7569 16.6875 15.8541C17.5903 14.9513 18.6944 14.5 20 14.5C21.3055 14.5 22.4097 14.9513 23.3125 15.8541C24.2153 16.7569 24.6667 17.8611 24.6667 19.1666C24.6667 20.4722 24.2153 21.5763 23.3125 22.4791C22.4097 23.3819 21.3055 23.8333 20 23.8333ZM20 31.6666C15.9444 31.6666 12.2778 30.5138 8.99999 28.2083C5.72221 25.9027 3.27777 22.8888 1.66666 19.1666C3.27777 15.4444 5.72221 12.4305 8.99999 10.125C12.2778 7.8194 15.9444 6.66663 20 6.66663C24.0555 6.66663 27.7222 7.8194 31 10.125C34.2778 12.4305 36.7222 15.4444 38.3333 19.1666C36.7222 22.8888 34.2778 25.9027 31 28.2083C27.7222 30.5138 24.0555 31.6666 20 31.6666ZM20 29.1666C23.3611 29.1666 26.4514 28.2569 29.2708 26.4375C32.0903 24.618 34.2361 22.1944 35.7083 19.1666C34.2361 16.1388 32.0903 13.7152 29.2708 11.8958C26.4514 10.0763 23.3611 9.16663 20 9.16663C16.6389 9.16663 13.5486 10.0763 10.7292 11.8958C7.90971 13.7152 5.74999 16.1388 4.24999 19.1666C5.74999 22.1944 7.90971 24.618 10.7292 26.4375C13.5486 28.2569 16.6389 29.1666 20 29.1666Z" fill="white"/>
</svg>
