<svg width="40" height="40" viewBox="0 0 40 40" fill="none" xmlns="http://www.w3.org/2000/svg">
<path d="M21.1523 33.6172C20.5526 34.3368 19.4473 34.3368 18.8476 33.6172L3.96135 15.7536C3.57983 15.2958 3.50552 14.6556 3.77204 14.1225L7.91872 5.82918C8.17281 5.321 8.69221 5 9.26036 5H30.7396C31.3078 5 31.8271 5.321 32.0812 5.82918L36.2279 14.1225C36.4944 14.6556 36.4201 15.2958 36.0386 15.7536L21.1523 33.6172ZM16.4187 11.5792C15.92 12.5765 16.6453 13.75 17.7604 13.75H22.2396C23.3547 13.75 24.0799 12.5765 23.5812 11.5792L21.9562 8.32918C21.7021 7.821 21.1828 7.5 20.6146 7.5H19.3854C18.8172 7.5 18.2978 7.821 18.0437 8.32918L16.4187 11.5792ZM16.0968 26.4352C16.9944 27.5143 18.75 26.8796 18.75 25.476V17.75C18.75 16.9216 18.0784 16.25 17.25 16.25H10.8237C9.5526 16.25 8.85765 17.732 9.6705 18.7092L16.0968 26.4352ZM21.25 25.476C21.25 26.8796 23.0056 27.5143 23.9032 26.4352L30.3295 18.7092C31.1423 17.732 30.4474 16.25 29.1762 16.25H22.75C21.9216 16.25 21.25 16.9216 21.25 17.75V25.476ZM27.0437 12.9208C27.2978 13.429 27.8172 13.75 28.3854 13.75H30.6979C31.813 13.75 32.5382 12.5765 32.0396 11.5792L30.4146 8.32918C30.1605 7.821 29.6411 7.5 29.0729 7.5H26.7604C25.6453 7.5 24.92 8.67347 25.4187 9.67082L27.0437 12.9208ZM7.96039 11.5792C7.46171 12.5765 8.18696 13.75 9.30203 13.75H11.6146C12.1828 13.75 12.7021 13.429 12.9562 12.9208L14.5812 9.67082C15.0799 8.67347 14.3547 7.5 13.2396 7.5H10.927C10.3589 7.5 9.83948 7.821 9.58539 8.32918L7.96039 11.5792Z" fill="white"/>
</svg>
