<svg width="43" height="43" viewBox="0 0 43 43" fill="none" xmlns="http://www.w3.org/2000/svg">
<path fill-rule="evenodd" clip-rule="evenodd" d="M0.10878 21.2772C0.10878 9.52612 9.6349 0 21.386 0C33.137 0 42.6632 9.52612 42.6632 21.2772C42.6632 33.0283 33.137 42.5544 21.386 42.5544C9.6349 42.5544 0.10878 33.0283 0.10878 21.2772ZM11.0133 17.6867V31.9158H15.5348V17.6867H11.0133ZM10.7474 13.1653C10.7474 14.6281 11.8112 15.6919 13.274 15.6919C14.7369 15.6919 15.8007 14.6281 15.8007 13.1653C15.8007 11.7025 14.7369 10.6386 13.274 10.6386C11.9442 10.6386 10.7474 11.7025 10.7474 13.1653ZM27.5032 31.9158H31.7586V23.139C31.7586 18.7505 29.099 17.2877 26.5723 17.2877C24.3116 17.2877 22.7158 18.7505 22.3168 19.6814V17.6867H18.0614V31.9158H22.5828V24.3358C22.5828 22.3411 23.9126 21.2772 25.2425 21.2772C26.5723 21.2772 27.5032 21.9421 27.5032 24.2028V31.9158Z" fill="white"/>
</svg>
