<svg width="43" height="44" viewBox="0 0 43 44" fill="none" xmlns="http://www.w3.org/2000/svg">
<path d="M42.9168 40.7266H40.4368V22.5566L42.9168 25.0366V10.8866H28.7668L33.2168 15.3366L28.9368 19.6166L19.3368 12.4766L3.07681 24.0366V0.876587H0.596802V43.2066H42.9268V40.7266H42.9168ZM18.0368 22.5366V40.7266H10.5968V27.8266L18.0368 22.5366ZM20.5168 22.6566L28.0368 28.2566V40.7366H20.5168V22.6666V22.6566ZM30.5168 28.5466L37.9568 21.1066V40.7266H30.5168V28.5466ZM19.2968 15.5466L29.1668 22.8866L36.7168 15.3366L34.7468 13.3666H40.4368V19.0566L38.4668 17.0866L29.3868 26.1666L19.2468 18.6266L3.0668 30.1266V27.0766L19.2868 15.5466H19.2968ZM3.07681 33.1766L8.11681 29.5966V40.7366H3.07681V33.1866V33.1766Z" fill="#00C3D9"/>
</svg>
