<svg width="509" height="647" viewBox="0 0 509 647" fill="none" xmlns="http://www.w3.org/2000/svg">
<g clip-path="url(#clip0_1_2450)">
<path d="M247.16 0.149963C224.58 1.94995 206.34 20.3199 204.69 42.91C203.74 55.8799 208.16 67.83 215.95 76.78C221.17 82.78 222.32 91.32 219.07 98.58C215.76 105.97 208.44 110.61 200.34 110.79C199.48 110.81 198.61 110.85 197.74 110.92C174.94 112.67 156.55 131.32 155.09 154.15C153.38 181.09 174.8 203.55 201.38 203.55H201.5C208.86 203.55 215.53 207.86 218.54 214.58L219.64 217.04C222.57 223.6 221.56 231.38 216.71 236.68C213.54 240.14 210.9 244.09 208.89 248.4C208.87 248.45 208.85 248.49 208.83 248.54C208.61 249.02 208.4 249.5 208.19 249.99C208.11 250.17 208.03 250.36 207.96 250.54C207.81 250.92 207.66 251.3 207.52 251.69C207.41 251.99 207.29 252.29 207.19 252.59C207.09 252.89 206.99 253.19 206.89 253.49C206.76 253.88 206.63 254.28 206.51 254.68C206.44 254.91 206.37 255.15 206.31 255.38C206.18 255.85 206.05 256.32 205.93 256.8C205.88 256.99 205.84 257.17 205.8 257.36C205.68 257.88 205.56 258.4 205.46 258.93C205.43 259.1 205.4 259.26 205.36 259.43C205.26 259.97 205.17 260.51 205.09 261.05C205.06 261.23 205.04 261.41 205.01 261.58C204.94 262.1 204.88 262.62 204.82 263.14C204.8 263.37 204.77 263.59 204.75 263.82C204.73 264.03 204.7 264.25 204.69 264.46C204.67 264.68 204.67 264.9 204.66 265.12C204.64 265.51 204.62 265.9 204.6 266.29C204.59 266.66 204.58 267.02 204.57 267.39C204.57 267.58 204.56 267.76 204.56 267.95C204.56 268.2 204.57 268.44 204.58 268.69C204.58 269.01 204.59 269.33 204.6 269.65C204.62 270.12 204.64 270.59 204.68 271.06C204.7 271.34 204.71 271.62 204.74 271.89C204.78 272.42 204.84 272.94 204.9 273.46C204.93 273.68 204.95 273.89 204.98 274.11C205.07 274.75 205.17 275.39 205.28 276.02C205.3 276.11 205.31 276.21 205.33 276.3C205.74 278.56 206.32 280.76 207.05 282.9V282.92C207.29 283.61 207.54 284.3 207.81 284.98C207.83 285.03 207.85 285.09 207.88 285.14C208.13 285.77 208.4 286.4 208.68 287.02C208.71 287.09 208.74 287.16 208.78 287.23C209.06 287.84 209.35 288.44 209.66 289.03C209.69 289.09 209.73 289.16 209.76 289.22C210.07 289.82 210.4 290.42 210.74 291.01C210.77 291.05 210.79 291.1 210.82 291.14C211.18 291.76 211.55 292.37 211.94 292.97C211.94 292.97 211.95 292.99 211.96 293C213.2 294.93 214.58 296.77 216.09 298.49C216.3 298.73 216.49 298.97 216.68 299.21C221.28 305.15 222.18 313.21 219.09 320.12C215.78 327.51 208.46 332.15 200.36 332.33C199.5 332.35 198.63 332.39 197.76 332.46C186.54 333.32 176.39 338.28 168.8 345.81C168.8 345.81 168.79 345.82 168.78 345.83C168.34 346.26 167.92 346.71 167.5 347.16C167.45 347.22 167.39 347.27 167.34 347.33C166.97 347.74 166.6 348.15 166.24 348.57C166.15 348.68 166.05 348.78 165.96 348.89C165.64 349.26 165.34 349.65 165.03 350.03C164.9 350.19 164.78 350.34 164.65 350.5C164.38 350.85 164.13 351.2 163.87 351.55C163.72 351.76 163.57 351.96 163.42 352.17C163.2 352.49 162.98 352.81 162.77 353.13C162.6 353.38 162.43 353.63 162.27 353.89C162.08 354.18 161.9 354.48 161.72 354.78C161.54 355.07 161.36 355.36 161.19 355.66C161.03 355.93 160.88 356.21 160.73 356.49C160.55 356.82 160.37 357.14 160.2 357.47C160.06 357.73 159.93 358 159.8 358.26C159.62 358.61 159.45 358.96 159.28 359.32C159.16 359.57 159.05 359.83 158.94 360.08C158.77 360.45 158.61 360.83 158.45 361.21C158.35 361.46 158.25 361.71 158.15 361.97C158 362.36 157.85 362.74 157.71 363.14C157.62 363.4 157.53 363.66 157.44 363.92C157.31 364.31 157.18 364.7 157.05 365.1C156.97 365.37 156.89 365.64 156.81 365.91C156.7 366.3 156.58 366.69 156.48 367.09C156.41 367.38 156.34 367.67 156.27 367.96C156.18 368.34 156.09 368.72 156.01 369.11C155.94 369.42 155.89 369.73 155.83 370.05C155.76 370.42 155.69 370.79 155.63 371.16C155.57 371.5 155.53 371.84 155.48 372.18C155.43 372.53 155.38 372.88 155.34 373.23C155.3 373.6 155.26 373.97 155.23 374.34C155.21 374.56 155.18 374.78 155.16 375C155.16 375.09 155.16 375.19 155.15 375.28C155.14 375.43 155.12 375.57 155.11 375.72C155.09 376.1 155.08 376.47 155.07 376.85C155.06 377.21 155.04 377.57 155.03 377.93C155.03 378.42 155.03 378.9 155.03 379.38C155.03 379.76 155.03 380.13 155.05 380.51C155.07 380.96 155.1 381.4 155.13 381.85C155.16 382.25 155.18 382.66 155.21 383.06C155.25 383.44 155.3 383.82 155.34 384.2C155.39 384.65 155.44 385.11 155.51 385.56C155.54 385.74 155.58 385.92 155.6 386.11C155.94 388.25 156.43 390.33 157.05 392.36C157.07 392.44 157.09 392.51 157.12 392.59C157.31 393.21 157.53 393.83 157.75 394.44C157.8 394.58 157.85 394.72 157.9 394.87C158.12 395.46 158.36 396.04 158.6 396.61C158.67 396.77 158.73 396.92 158.79 397.08C159.04 397.65 159.3 398.21 159.57 398.77C159.64 398.92 159.71 399.08 159.79 399.23C160.06 399.79 160.35 400.33 160.65 400.88C160.73 401.03 160.81 401.18 160.89 401.32C161.19 401.86 161.51 402.4 161.84 402.93C161.92 403.07 162.01 403.21 162.09 403.34C162.42 403.87 162.77 404.4 163.13 404.92C163.21 405.04 163.3 405.17 163.38 405.29C163.75 405.81 164.13 406.33 164.51 406.84C164.59 406.95 164.67 407.05 164.76 407.16C165.16 407.68 165.57 408.19 166 408.68C166.07 408.77 166.15 408.85 166.22 408.94C166.66 409.45 167.11 409.95 167.57 410.45C167.63 410.51 167.69 410.58 167.75 410.64C168.23 411.15 168.72 411.65 169.23 412.13C169.27 412.17 169.31 412.2 169.35 412.24C169.88 412.75 170.42 413.25 170.98 413.73C170.98 413.73 170.99 413.73 171 413.74C179.18 420.86 189.87 425.16 201.55 425.12C208.9 425.12 215.56 429.44 218.57 436.15L219.67 438.61C222.6 445.17 221.59 452.95 216.74 458.25C209.2 466.5 204.59 477.48 204.59 489.52C204.59 501.56 208.94 511.9 216.1 520.06C221.23 525.91 222.45 534.21 219.28 541.31L219.13 541.65C215.79 549.11 208.47 553.75 200.37 553.93C199.6 553.95 198.83 553.98 198.05 554.04C175.38 555.64 156.94 573.91 155.15 596.54C152.89 625.07 176.63 648.8 205.17 646.53C227.75 644.73 245.99 626.36 247.65 603.77C248.6 590.8 244.18 578.84 236.39 569.89C231.17 563.89 230.02 555.35 233.27 548.09C236.58 540.7 243.9 536.06 252 535.88C253.61 535.84 255.23 535.73 256.87 535.52C277.89 532.9 294.67 515.88 297.03 494.83C300.16 466.88 278.28 443.12 250.94 443.12H250.82C243.46 443.12 236.79 438.81 233.78 432.09L232.68 429.63C229.75 423.07 230.76 415.29 235.61 409.99C238.78 406.53 241.42 402.58 243.42 398.28C243.44 398.23 243.46 398.19 243.49 398.14C243.71 397.66 243.92 397.17 244.13 396.69C244.21 396.51 244.29 396.33 244.36 396.15C244.52 395.77 244.66 395.38 244.81 394.99C244.92 394.69 245.03 394.4 245.14 394.1C245.25 393.8 245.34 393.5 245.44 393.2C245.57 392.81 245.7 392.41 245.82 392.02C245.89 391.78 245.96 391.55 246.02 391.31C246.15 390.84 246.28 390.37 246.4 389.9C246.45 389.71 246.49 389.52 246.54 389.33C246.66 388.81 246.78 388.29 246.88 387.77C246.91 387.6 246.95 387.43 246.98 387.26C247.08 386.72 247.17 386.18 247.25 385.64C247.28 385.46 247.3 385.29 247.33 385.11C247.4 384.59 247.46 384.07 247.52 383.55C247.54 383.32 247.57 383.1 247.59 382.87C247.61 382.66 247.64 382.45 247.65 382.24C247.67 382.02 247.67 381.8 247.68 381.58C247.7 381.19 247.72 380.79 247.74 380.4C247.75 380.03 247.76 379.67 247.77 379.31C247.77 379.12 247.78 378.94 247.78 378.75C247.78 378.5 247.77 378.25 247.76 377.99C247.76 377.68 247.76 377.37 247.74 377.07C247.72 376.59 247.69 376.11 247.66 375.63C247.64 375.36 247.63 375.1 247.61 374.84C247.56 374.29 247.5 373.74 247.44 373.2C247.42 373.01 247.4 372.82 247.37 372.63C247.07 370.36 246.6 368.15 245.99 365.99C245.98 365.95 245.97 365.92 245.96 365.89C245.76 365.21 245.55 364.54 245.33 363.88C245.3 363.79 245.27 363.71 245.24 363.62C245.03 363 244.8 362.39 244.56 361.79C244.52 361.69 244.48 361.6 244.44 361.5C244.2 360.9 243.95 360.31 243.68 359.73C243.64 359.64 243.6 359.56 243.56 359.47C243.28 358.87 242.99 358.27 242.69 357.68C242.66 357.62 242.63 357.56 242.6 357.51C242.27 356.87 241.93 356.24 241.57 355.62C241.57 355.62 241.57 355.62 241.57 355.61C240.12 353.1 238.44 350.73 236.56 348.54C232.07 343.32 230.46 336.31 232.14 329.8C232.43 328.7 232.79 327.62 233.27 326.57C236.58 319.18 243.9 314.54 252 314.36C253.61 314.32 255.23 314.21 256.87 314C257.27 313.95 257.65 313.86 258.05 313.8C258.5 313.73 258.95 313.66 259.4 313.57C260.49 313.37 261.56 313.13 262.62 312.86C262.73 312.83 262.84 312.8 262.95 312.78C276.84 309.07 288.2 298.99 293.71 285.92C293.74 285.86 293.77 285.79 293.79 285.73C294.08 285.03 294.36 284.32 294.61 283.61C294.83 283 295.04 282.39 295.23 281.78C295.39 281.28 295.54 280.77 295.67 280.26C295.9 279.42 296.11 278.57 296.3 277.71C296.38 277.35 296.45 276.98 296.52 276.61C296.71 275.6 296.87 274.58 297 273.55C297 273.47 297.03 273.39 297.04 273.31C297.07 273.07 297.08 272.84 297.1 272.6C297.13 272.31 297.17 272.02 297.19 271.73C297.2 271.57 297.2 271.42 297.21 271.26C297.24 270.78 297.27 270.3 297.28 269.82C297.3 269.41 297.31 269.01 297.32 268.61C297.32 268.16 297.32 267.71 297.32 267.26C297.32 266.84 297.31 266.41 297.29 265.99C297.27 265.57 297.24 265.16 297.21 264.74C297.18 264.3 297.15 263.85 297.11 263.41C297.07 263.03 297.02 262.65 296.98 262.28C296.92 261.81 296.86 261.34 296.79 260.88C296.74 260.54 296.67 260.2 296.61 259.86C296.52 259.37 296.43 258.87 296.33 258.38C296.27 258.08 296.19 257.79 296.13 257.5C296.01 256.98 295.89 256.46 295.75 255.94C295.68 255.69 295.61 255.45 295.54 255.21C295.38 254.66 295.22 254.1 295.04 253.56C294.98 253.37 294.91 253.18 294.84 253C294.64 252.41 294.43 251.81 294.2 251.23C294.15 251.11 294.1 250.99 294.05 250.87C293.79 250.23 293.53 249.59 293.24 248.96C293.22 248.92 293.21 248.89 293.19 248.86C285.87 232.76 269.62 221.56 250.8 221.61C243.45 221.61 236.79 217.29 233.79 210.58L232.69 208.12C229.76 201.56 230.77 193.78 235.62 188.48C243.16 180.23 247.77 169.25 247.77 157.22C247.77 145.19 243.54 135.13 236.56 127.01C231.31 120.91 229.98 112.36 233.27 105.02C236.58 97.63 243.9 92.99 252 92.81C252.86 92.79 253.73 92.75 254.61 92.68C277.13 90.94 295.4 72.72 297.19 50.2C299.45 21.66 275.71 -2.08002 247.17 0.200012L247.16 0.149963Z" fill="#04284A"/>
<path d="M235.561 603.072C237.095 584.202 223.043 567.66 204.173 566.125C185.302 564.591 168.761 578.644 167.226 597.514C165.691 616.384 179.744 632.925 198.614 634.46C217.484 635.995 234.026 621.942 235.561 603.072Z" fill="white"/>
<path d="M221.626 585.309L216.646 587.799L215.536 585.569L220.516 583.079L221.626 585.309Z" fill="#00C3D9"/>
<path d="M220.516 605.219L215.536 602.729L216.646 600.499L221.626 602.989L220.516 605.219Z" fill="#00C3D9"/>
<path d="M217.336 592.909H222.396V595.399H217.336V592.909Z" fill="#00C3D9"/>
<path d="M181.806 583.079L186.786 585.569L185.676 587.799L180.696 585.309L181.806 583.079Z" fill="#00C3D9"/>
<path d="M181.806 605.219L180.696 602.989L185.676 600.499L186.786 602.729L181.806 605.219Z" fill="#00C3D9"/>
<path d="M179.926 592.909H184.986V595.399H179.926V592.909Z" fill="#00C3D9"/>
<path d="M197.426 620.449H204.896V622.939H197.426V620.449Z" fill="#00C3D9"/>
<path d="M214.856 594.149C214.856 586.599 208.716 580.459 201.166 580.459C193.616 580.459 187.476 586.599 187.476 594.149C187.476 599.299 190.376 603.989 194.946 606.329V610.329H192.456V612.819H194.946V617.959H207.386V612.819H209.876V610.329H207.386V606.329C211.946 603.989 214.856 599.299 214.856 594.149ZM204.896 615.469H197.426V612.819H204.896V615.469ZM199.916 596.639C199.916 595.949 200.476 595.399 201.156 595.399C201.836 595.399 202.396 595.959 202.396 596.639C202.396 597.319 201.836 597.879 201.156 597.879C200.476 597.879 199.916 597.319 199.916 596.639ZM202.406 610.329V600.159C203.856 599.649 204.896 598.259 204.896 596.639C204.896 594.579 203.226 592.909 201.166 592.909C199.106 592.909 197.436 594.579 197.436 596.639C197.436 598.259 198.476 599.649 199.926 600.159V610.329H197.436V604.729L196.696 604.399C192.616 602.609 189.976 598.579 189.976 594.149C189.976 587.969 194.996 582.949 201.176 582.949C207.356 582.949 212.376 587.969 212.376 594.149C212.376 598.579 209.736 602.609 205.656 604.399L204.916 604.729V610.329H202.426H202.406Z" fill="#00C3D9"/>
<path d="M208.655 647.305V653.945" stroke="#303030" stroke-width="2" stroke-miterlimit="10" stroke-linecap="round"/>
<path d="M250.95 523.79C269.882 523.79 285.23 508.442 285.23 489.51C285.23 470.578 269.882 455.23 250.95 455.23C232.018 455.23 216.67 470.578 216.67 489.51C216.67 508.442 232.018 523.79 250.95 523.79Z" fill="white"/>
<path d="M250.94 482.57C247.48 482.57 244.67 485.38 244.67 488.84C244.67 492.3 247.48 495.11 250.94 495.11C254.4 495.11 257.21 492.3 257.21 488.84C257.21 485.38 254.4 482.57 250.94 482.57ZM250.94 492.6C248.87 492.6 247.18 490.91 247.18 488.84C247.18 486.77 248.87 485.08 250.94 485.08C253.01 485.08 254.7 486.77 254.7 488.84C254.7 490.91 253.01 492.6 250.94 492.6Z" fill="#00C3D9"/>
<path d="M250.94 490.61L249.17 488.84L250.94 487.07L252.71 488.84L250.94 490.61Z" fill="#00C3D9"/>
<path d="M262.16 496.94C262.3 494.42 262.19 491.91 261.81 489.41C260.86 483.14 258.28 477.16 254.14 471.65L250.95 467.39L247.76 471.65C243.63 477.16 241.05 483.14 240.09 489.41C239.71 491.9 239.59 494.42 239.74 496.94C238.28 497.99 237.07 499.36 236.19 500.93C235.18 502.75 234.65 504.81 234.65 506.89V510.25L237.25 508.34C238.55 507.48 240.03 506.9 241.57 506.64C242.04 508.12 242.4 508.97 242.87 510.26C243.7 509.71 245.69 507.25 249.7 506.77V510.25H252.21V506.77C256.23 507.25 258.22 509.71 259.04 510.26C259.52 508.96 259.87 508.12 260.34 506.64C261.88 506.9 263.36 507.48 264.66 508.34L267.26 510.25V506.89C267.26 502.95 265.37 499.25 262.17 496.94H262.16ZM237.26 505.44C237.57 503.35 238.54 501.44 240.03 499.96C240.23 501.38 240.51 502.79 240.87 504.21C239.62 504.45 238.4 504.86 237.26 505.44ZM257.85 506.16C256.11 505.07 254.18 504.43 252.21 504.24V497.7H249.7V504.24C247.73 504.43 245.79 505.07 244.06 506.16C240.32 494.75 242.32 483.09 249.77 473.16L250.96 471.58L252.15 473.16C259.6 483.09 261.6 494.75 257.86 506.16H257.85ZM261.03 504.21C261.39 502.79 261.67 501.38 261.87 499.96C263.36 501.43 264.34 503.35 264.64 505.44C263.5 504.87 262.28 504.45 261.03 504.21Z" fill="#00C3D9"/>
<path d="M229.54 477.55H237.15V480.06H229.54V477.55Z" fill="#00C3D9"/>
<path d="M264.74 477.55H272.35V480.06H264.74V477.55Z" fill="#00C3D9"/>
<path d="M232.15 468.66L238.97 471.84L237.91 474.11L231.09 470.93L232.15 468.66Z" fill="#00C3D9"/>
<path d="M269.74 488.95L262.92 485.77L263.98 483.5L270.8 486.68L269.74 488.95Z" fill="#00C3D9"/>
<path d="M231.09 486.68L237.91 483.5L238.97 485.77L232.15 488.95L231.09 486.68Z" fill="#00C3D9"/>
<path d="M269.74 468.66L270.8 470.93L263.98 474.11L262.92 471.84L269.74 468.66Z" fill="#00C3D9"/>
<path d="M235.218 384.258C238.284 365.576 225.624 347.945 206.942 344.879C188.259 341.813 170.629 354.473 167.563 373.155C164.497 391.837 177.156 409.468 195.838 412.534C214.521 415.6 232.151 402.941 235.218 384.258Z" fill="white"/>
<path d="M222.917 396.727H220.437V378.557L222.917 381.037V366.887H208.767L213.217 371.337L208.937 375.617L199.337 368.477L183.077 380.037V356.877H180.597V399.207H222.927V396.727H222.917ZM198.037 378.537V396.727H190.597V383.827L198.037 378.537ZM200.517 378.657L208.037 384.257V396.737H200.517V378.667V378.657ZM210.517 384.547L217.957 377.107V396.727H210.517V384.547ZM199.297 371.547L209.167 378.887L216.717 371.337L214.747 369.367H220.437V375.057L218.467 373.087L209.387 382.167L199.247 374.627L183.067 386.127V383.077L199.287 371.547H199.297ZM183.077 389.177L188.117 385.597V396.737H183.077V389.187V389.177Z" fill="#00C3D9"/>
<path d="M235.222 162.687C238.288 144.005 225.629 126.374 206.946 123.308C188.264 120.242 170.633 132.901 167.567 151.584C164.501 170.266 177.161 187.897 195.843 190.963C214.526 194.029 232.156 181.369 235.222 162.687Z" fill="white"/>
<path d="M198.8 145.311C199.55 144.611 200.01 143.611 200.01 142.511C200.01 141.051 199.19 139.781 197.99 139.131L200.77 133.381H186.44L189.22 139.131C188.02 139.781 187.2 141.051 187.2 142.511C187.2 143.611 187.67 144.611 188.42 145.311C181.51 150.601 179.52 158.981 179.52 167.691V174.521H202.57V177.081H223.23V151.471H204.14C202.76 149.041 200.97 146.981 198.79 145.311H198.8ZM191.05 143.791C190.34 143.791 189.77 143.221 189.77 142.511C189.77 141.801 190.34 141.231 191.05 141.231H196.17C196.88 141.231 197.45 141.801 197.45 142.511C197.45 143.221 196.88 143.791 196.17 143.791H191.05ZM196.69 135.941L195.37 138.671H191.85L190.53 135.941H196.69ZM182.09 171.961V167.691C182.09 157.261 185.14 150.281 191.41 146.361H195.81C198.81 148.231 201.03 150.741 202.57 154.011V171.971H182.08L182.09 171.961ZM220.67 174.521H205.13V169.401H220.67V174.521ZM205.13 166.841V161.721H220.67V166.841H205.13ZM220.67 154.041V159.161H205.13V154.041H220.67Z" fill="#00C3D9"/>
<path d="M193.61 157.871C194.32 157.871 194.89 158.441 194.89 159.151H197.45C197.45 157.481 196.38 156.061 194.89 155.531V154.031H192.33V155.531C190.84 156.061 189.77 157.481 189.77 159.151C189.77 161.271 191.49 162.991 193.61 162.991C194.32 162.991 194.89 163.561 194.89 164.271C194.89 164.981 194.32 165.551 193.61 165.551C192.9 165.551 192.33 164.981 192.33 164.271H189.77C189.77 165.941 190.84 167.361 192.33 167.891V169.391H194.89V167.891C196.38 167.361 197.45 165.941 197.45 164.271C197.45 162.151 195.73 160.431 193.61 160.431C192.9 160.431 192.33 159.861 192.33 159.151C192.33 158.441 192.9 157.871 193.61 157.871Z" fill="#00C3D9"/>
<path d="M250.95 302.22C269.882 302.22 285.23 286.872 285.23 267.94C285.23 249.008 269.882 233.66 250.95 233.66C232.018 233.66 216.67 249.008 216.67 267.94C216.67 286.872 232.018 302.22 250.95 302.22Z" fill="white"/>
<path d="M264.98 255.21L267.16 253.03L269.13 255L271.1 253.03L265.2 247.13L263.23 249.1L265.2 251.07L262.83 253.44C260.43 251.71 257.71 250.51 254.81 249.93V246.64H257.59V243.86H243.68V246.64H246.46V249.93C243.57 250.51 240.84 251.71 238.44 253.44L236.07 251.07L238.04 249.1L236.07 247.13L230.17 253.03L232.14 255L234.11 253.03L236.29 255.21C232.19 259.1 229.77 264.46 229.77 270.37C229.77 281.93 239.13 291.33 250.63 291.33C262.13 291.33 271.49 281.93 271.49 270.37C271.49 264.75 269.27 259.3 264.97 255.21H264.98ZM249.25 246.63H252.03V249.55C251.57 249.52 251.11 249.5 250.64 249.5C250.17 249.5 249.71 249.52 249.25 249.55V246.63ZM250.64 288.54C240.67 288.54 232.56 280.39 232.56 270.36C232.56 260.33 240.67 252.28 250.64 252.28C260.61 252.28 268.72 260.39 268.72 270.36C268.72 280.33 260.61 288.54 250.64 288.54Z" fill="#00C3D9"/>
<path d="M252.03 266.44V255.07H249.25V266.44C247.63 267.01 246.47 268.56 246.47 270.37C246.47 272.67 248.34 274.54 250.64 274.54C252.94 274.54 254.81 272.67 254.81 270.37C254.81 268.56 253.65 267.01 252.03 266.44ZM250.64 271.76C249.87 271.76 249.25 271.14 249.25 270.37C249.25 269.6 249.87 268.98 250.64 268.98C251.41 268.98 252.03 269.6 252.03 270.37C252.03 271.14 251.41 271.76 250.64 271.76Z" fill="#00C3D9"/>
<path d="M249.25 282.89H252.03V285.67H249.25V282.89Z" fill="#00C3D9"/>
<path d="M235.34 268.98H238.12V271.76H235.34V268.98Z" fill="#00C3D9"/>
<path d="M263.16 268.98H265.94V271.76H263.16V268.98Z" fill="#00C3D9"/>
<path d="M240.81 282.17L238.84 280.2L240.81 278.23L242.78 280.2L240.81 282.17Z" fill="#00C3D9"/>
<path d="M260.48 262.5L258.51 260.53L260.48 258.56L262.45 260.53L260.48 262.5Z" fill="#00C3D9"/>
<path d="M260.48 282.17L258.51 280.2L260.48 278.23L262.45 280.2L260.48 282.17Z" fill="#00C3D9"/>
<path d="M240.81 262.5L238.84 260.53L240.81 258.56L242.78 260.53L240.81 262.5Z" fill="#00C3D9"/>
<path d="M250.95 80.65C269.882 80.65 285.23 65.3023 285.23 46.37C285.23 27.4376 269.882 12.09 250.95 12.09C232.018 12.09 216.67 27.4376 216.67 46.37C216.67 65.3023 232.018 80.65 250.95 80.65Z" fill="white"/>
<path d="M245.3 46.1299L250.94 43.1599L256.58 46.1299L255.5 39.8499L260.07 35.3999L253.76 34.4799L250.94 28.7599L248.12 34.4799L241.81 35.3999L246.38 39.8499L245.3 46.1299ZM249.82 36.8199L250.94 34.5499L252.06 36.8199L254.57 37.1799L252.76 38.9499L253.19 41.4499L250.95 40.2699L248.71 41.4499L249.14 38.9499L247.33 37.1799L249.84 36.8199H249.82Z" fill="#00C3D9"/>
<path d="M235.5 30.3699C231.97 30.3699 229.1 33.2399 229.1 36.7699C229.1 40.2999 231.97 43.1699 235.5 43.1699H237.32C238.66 47.8599 242.39 51.5599 247.11 52.8899V58.5399H242.34L239.78 66.3099H236.86V68.8699H265.03V66.3099H262.11L259.55 58.5399H254.78V52.8899C259.46 51.5599 263.16 47.8599 264.49 43.1799H266.39C269.92 43.1799 272.79 40.3099 272.79 36.7799C272.79 33.2499 269.92 30.3799 266.39 30.3799H265.02V27.7299H267.67V25.1699H234.21V27.7299H236.77V30.3799H235.49L235.5 30.3699ZM235.5 40.6099C233.38 40.6099 231.66 38.8899 231.66 36.7699C231.66 34.6499 233.38 32.9299 235.5 32.9299H236.78V39.3299C236.78 39.7599 236.8 40.1899 236.84 40.6099H235.5ZM259.42 66.2999H242.47L244.19 61.0899H257.7L259.42 66.2999ZM252.23 58.5299H249.67V53.3499C250.09 53.3899 250.52 53.4099 250.95 53.4099C251.38 53.4099 251.81 53.3899 252.23 53.3499V58.5299ZM266.4 32.9199C268.52 32.9199 270.24 34.6399 270.24 36.7599C270.24 38.8799 268.52 40.5999 266.4 40.5999H264.98C265.02 40.1799 265.04 39.7499 265.04 39.3199V32.9199H266.41H266.4ZM262.47 27.7099V39.3199C262.47 45.6699 257.3 50.8399 250.95 50.8399C244.6 50.8399 239.34 45.6699 239.34 39.3199V27.7099H262.47Z" fill="#00C3D9"/>
</g>
<rect x="129" y="152" width="20" height="4" rx="2" fill="#04284A"/>
<rect x="303" y="40" width="20" height="4" rx="2" fill="#04284A"/>
<rect x="303" y="265" width="20" height="4" rx="2" fill="#04284A"/>
<rect x="127" y="376" width="20" height="4" rx="2" fill="#04284A"/>
<rect x="303" y="489" width="20" height="4" rx="2" fill="#04284A"/>
<rect x="127" y="605" width="20" height="4" rx="2" fill="#04284A"/>
<path d="M0.458 612V599.22H2.474V604.566H3.968L7.982 599.22H10.286L5.588 605.412L10.628 612H8.162L3.968 606.42H2.474V612H0.458ZM17.0527 612.09C16.1287 612.09 15.2947 611.91 14.5507 611.55C13.8067 611.19 13.1647 610.704 12.6247 610.092C12.0847 609.468 11.6647 608.772 11.3647 608.004C11.0767 607.224 10.9327 606.426 10.9327 605.61C10.9327 604.758 11.0887 603.948 11.4007 603.18C11.7127 602.4 12.1447 601.71 12.6967 601.11C13.2487 600.498 13.8967 600.018 14.6407 599.67C15.3967 599.31 16.2127 599.13 17.0887 599.13C18.0007 599.13 18.8287 599.316 19.5727 599.688C20.3287 600.06 20.9707 600.558 21.4987 601.182C22.0387 601.806 22.4527 602.502 22.7407 603.27C23.0407 604.038 23.1907 604.824 23.1907 605.628C23.1907 606.48 23.0347 607.296 22.7227 608.076C22.4227 608.844 21.9967 609.534 21.4447 610.146C20.8927 610.746 20.2387 611.22 19.4827 611.568C18.7387 611.916 17.9287 612.09 17.0527 612.09ZM12.9847 605.61C12.9847 606.21 13.0807 606.792 13.2727 607.356C13.4647 607.92 13.7347 608.424 14.0827 608.868C14.4427 609.3 14.8747 609.642 15.3787 609.894C15.8827 610.146 16.4467 610.272 17.0707 610.272C17.7187 610.272 18.2947 610.14 18.7987 609.876C19.3027 609.612 19.7227 609.258 20.0587 608.814C20.4067 608.358 20.6707 607.854 20.8507 607.302C21.0307 606.738 21.1207 606.174 21.1207 605.61C21.1207 605.01 21.0247 604.434 20.8327 603.882C20.6527 603.318 20.3827 602.82 20.0227 602.388C19.6627 601.944 19.2307 601.596 18.7267 601.344C18.2347 601.092 17.6827 600.966 17.0707 600.966C16.4227 600.966 15.8467 601.098 15.3427 601.362C14.8387 601.626 14.4127 601.98 14.0647 602.424C13.7167 602.868 13.4467 603.366 13.2547 603.918C13.0747 604.47 12.9847 605.034 12.9847 605.61ZM35.7719 599.22V612H33.7379V606.366H27.2939V612H25.2779V599.22H27.2939V604.566H33.7379V599.22H35.7719ZM48.2488 614.43V612H38.6548V599.22H40.6708V610.218H46.3768V599.22H48.4108V610.218H50.0308V614.43H48.2488ZM60.8505 610.218V612H52.0845V599.22H60.6885V601.002H54.1005V604.638H59.8065V606.312H54.1005V610.218H60.8505ZM62.9482 612V599.22H73.0462V612H71.0122V601.002H64.9642V612H62.9482ZM85.532 614.43V612H75.938V599.22H77.954V610.218H83.66V599.22H85.694V610.218H87.314V614.43H85.532ZM89.4577 612V599.22H91.4737V609.156L98.2957 599.22H100.186V612H98.1697V602.226L91.4197 612H89.4577ZM102.789 612L106.029 606.762C105.189 606.522 104.535 606.072 104.067 605.412C103.599 604.752 103.365 603.972 103.365 603.072C103.365 602.34 103.539 601.686 103.887 601.11C104.247 600.534 104.745 600.078 105.381 599.742C106.017 599.394 106.755 599.22 107.595 599.22H112.221V612H110.205V607.014H108.549C108.477 607.014 108.399 607.014 108.315 607.014C108.243 607.014 108.171 607.014 108.099 607.014L105.111 612H102.789ZM107.811 605.268H110.205V600.966H107.865C107.409 600.966 106.995 601.05 106.623 601.218C106.251 601.374 105.957 601.608 105.741 601.92C105.537 602.232 105.435 602.616 105.435 603.072C105.435 603.528 105.531 603.918 105.723 604.242C105.915 604.566 106.185 604.818 106.533 604.998C106.893 605.178 107.319 605.268 107.811 605.268Z" fill="#04284A"/>
<path d="M333.594 50.448V46.218H334.206C334.542 46.218 334.83 46.086 335.07 45.822C335.322 45.558 335.532 45.138 335.7 44.562C335.88 43.986 336.018 43.23 336.114 42.294C336.222 41.346 336.3 40.188 336.348 38.82L336.438 35.22H344.664V46.218H346.284V50.448H344.502V48H335.376V50.448H333.594ZM336.762 46.218H342.63V37.002H338.31L338.256 39.09C338.22 40.47 338.148 41.64 338.04 42.6C337.932 43.548 337.776 44.316 337.572 44.904C337.368 45.492 337.098 45.93 336.762 46.218ZM348.434 48V35.22H350.45V45.156L357.272 35.22H359.162V48H357.146V38.226L350.396 48H348.434ZM365.924 48.144C364.952 48.144 364.07 47.94 363.278 47.532C362.498 47.124 361.886 46.56 361.442 45.84L362.99 44.886C363.278 45.378 363.668 45.762 364.16 46.038C364.664 46.302 365.24 46.434 365.888 46.434C366.704 46.434 367.328 46.242 367.76 45.858C368.204 45.474 368.426 44.964 368.426 44.328C368.426 43.92 368.336 43.56 368.156 43.248C367.976 42.924 367.706 42.678 367.346 42.51C366.986 42.33 366.548 42.24 366.032 42.24H364.61V40.674H366.032C366.452 40.674 366.806 40.596 367.094 40.44C367.394 40.272 367.622 40.05 367.778 39.774C367.934 39.486 368.012 39.162 368.012 38.802C368.012 38.43 367.922 38.106 367.742 37.83C367.574 37.542 367.328 37.32 367.004 37.164C366.68 36.996 366.284 36.912 365.816 36.912C365.168 36.912 364.61 37.044 364.142 37.308C363.686 37.572 363.326 37.932 363.062 38.388L361.586 37.362C362.03 36.666 362.6 36.114 363.296 35.706C364.004 35.298 364.874 35.094 365.906 35.094C366.734 35.094 367.448 35.232 368.048 35.508C368.66 35.772 369.134 36.162 369.47 36.678C369.806 37.182 369.974 37.794 369.974 38.514C369.974 39.114 369.824 39.678 369.524 40.206C369.236 40.722 368.786 41.112 368.174 41.376C368.906 41.58 369.47 41.964 369.866 42.528C370.274 43.092 370.478 43.752 370.478 44.508C370.478 45.276 370.28 45.936 369.884 46.488C369.488 47.028 368.948 47.442 368.264 47.73C367.592 48.006 366.812 48.144 365.924 48.144ZM376.046 35.22H377.954L382.922 48H380.798L379.448 44.526H374.516L373.184 48H371.042L376.046 35.22ZM379.052 43.032L377 37.434L374.876 43.032H379.052ZM384.593 48V35.22H386.609V45.156L393.431 35.22H395.321V48H393.305V38.226L386.555 48H384.593ZM389.957 34.356C389.309 34.356 388.751 34.254 388.283 34.05C387.815 33.834 387.461 33.546 387.221 33.186C386.981 32.814 386.861 32.406 386.861 31.962H388.319C388.319 32.286 388.439 32.58 388.679 32.844C388.931 33.108 389.357 33.24 389.957 33.24C390.545 33.24 390.965 33.12 391.217 32.88C391.469 32.64 391.595 32.334 391.595 31.962H393.053C393.053 32.406 392.933 32.814 392.693 33.186C392.453 33.546 392.099 33.834 391.631 34.05C391.175 34.254 390.617 34.356 389.957 34.356ZM408.778 35.22V48H406.744V42.366H400.3V48H398.284V35.22H400.3V40.566H406.744V35.22H408.778Z" fill="#04284A"/>
<path d="M18.458 384V371.22H28.556V384H26.522V373.002H20.474V384H18.458ZM31.4478 384V371.22H36.8118C37.3878 371.22 37.9158 371.34 38.3958 371.58C38.8758 371.82 39.2958 372.138 39.6558 372.534C40.0158 372.93 40.2918 373.374 40.4838 373.866C40.6758 374.358 40.7718 374.862 40.7718 375.378C40.7718 376.086 40.6098 376.764 40.2858 377.412C39.9738 378.048 39.5238 378.564 38.9358 378.96C38.3598 379.356 37.6878 379.554 36.9198 379.554H33.4638V384H31.4478ZM33.4638 377.772H36.7938C37.1778 377.772 37.5138 377.67 37.8018 377.466C38.0898 377.25 38.3118 376.962 38.4678 376.602C38.6358 376.242 38.7198 375.834 38.7198 375.378C38.7198 374.91 38.6238 374.496 38.4318 374.136C38.2398 373.776 37.9878 373.5 37.6758 373.308C37.3758 373.104 37.0458 373.002 36.6858 373.002H33.4638V377.772ZM47.9727 384.09C47.0487 384.09 46.2147 383.91 45.4707 383.55C44.7267 383.19 44.0847 382.704 43.5447 382.092C43.0047 381.468 42.5847 380.772 42.2847 380.004C41.9967 379.224 41.8527 378.426 41.8527 377.61C41.8527 376.758 42.0087 375.948 42.3207 375.18C42.6327 374.4 43.0647 373.71 43.6167 373.11C44.1687 372.498 44.8167 372.018 45.5607 371.67C46.3167 371.31 47.1327 371.13 48.0087 371.13C48.9207 371.13 49.7487 371.316 50.4927 371.688C51.2487 372.06 51.8907 372.558 52.4187 373.182C52.9587 373.806 53.3727 374.502 53.6607 375.27C53.9607 376.038 54.1107 376.824 54.1107 377.628C54.1107 378.48 53.9547 379.296 53.6427 380.076C53.3427 380.844 52.9167 381.534 52.3647 382.146C51.8127 382.746 51.1587 383.22 50.4027 383.568C49.6587 383.916 48.8487 384.09 47.9727 384.09ZM43.9047 377.61C43.9047 378.21 44.0007 378.792 44.1927 379.356C44.3847 379.92 44.6547 380.424 45.0027 380.868C45.3627 381.3 45.7947 381.642 46.2987 381.894C46.8027 382.146 47.3667 382.272 47.9907 382.272C48.6387 382.272 49.2147 382.14 49.7187 381.876C50.2227 381.612 50.6427 381.258 50.9787 380.814C51.3267 380.358 51.5907 379.854 51.7707 379.302C51.9507 378.738 52.0407 378.174 52.0407 377.61C52.0407 377.01 51.9447 376.434 51.7527 375.882C51.5727 375.318 51.3027 374.82 50.9427 374.388C50.5827 373.944 50.1507 373.596 49.6467 373.344C49.1547 373.092 48.6027 372.966 47.9907 372.966C47.3427 372.966 46.7667 373.098 46.2627 373.362C45.7587 373.626 45.3327 373.98 44.9847 374.424C44.6367 374.868 44.3667 375.366 44.1747 375.918C43.9947 376.47 43.9047 377.034 43.9047 377.61ZM65.2243 373.002H60.9763V384H58.9423V373.002H54.6763V371.22H65.2243V373.002ZM71.8965 384.09C70.9725 384.09 70.1385 383.91 69.3945 383.55C68.6505 383.19 68.0085 382.704 67.4685 382.092C66.9285 381.468 66.5085 380.772 66.2085 380.004C65.9205 379.224 65.7765 378.426 65.7765 377.61C65.7765 376.758 65.9325 375.948 66.2445 375.18C66.5565 374.4 66.9885 373.71 67.5405 373.11C68.0925 372.498 68.7405 372.018 69.4845 371.67C70.2405 371.31 71.0565 371.13 71.9325 371.13C72.8445 371.13 73.6725 371.316 74.4165 371.688C75.1725 372.06 75.8145 372.558 76.3425 373.182C76.8825 373.806 77.2965 374.502 77.5845 375.27C77.8845 376.038 78.0345 376.824 78.0345 377.628C78.0345 378.48 77.8785 379.296 77.5665 380.076C77.2665 380.844 76.8405 381.534 76.2885 382.146C75.7365 382.746 75.0825 383.22 74.3265 383.568C73.5825 383.916 72.7725 384.09 71.8965 384.09ZM67.8285 377.61C67.8285 378.21 67.9245 378.792 68.1165 379.356C68.3085 379.92 68.5785 380.424 68.9265 380.868C69.2865 381.3 69.7185 381.642 70.2225 381.894C70.7265 382.146 71.2905 382.272 71.9145 382.272C72.5625 382.272 73.1385 382.14 73.6425 381.876C74.1465 381.612 74.5665 381.258 74.9025 380.814C75.2505 380.358 75.5145 379.854 75.6945 379.302C75.8745 378.738 75.9645 378.174 75.9645 377.61C75.9645 377.01 75.8685 376.434 75.6765 375.882C75.4965 375.318 75.2265 374.82 74.8665 374.388C74.5065 373.944 74.0745 373.596 73.5705 373.344C73.0785 373.092 72.5265 372.966 71.9145 372.966C71.2665 372.966 70.6905 373.098 70.1865 373.362C69.6825 373.626 69.2565 373.98 68.9085 374.424C68.5605 374.868 68.2905 375.366 68.0985 375.918C67.9185 376.47 67.8285 377.034 67.8285 377.61ZM89.1481 373.002H84.9001V384H82.8661V373.002H78.6001V371.22H89.1481V373.002ZM90.9519 384V371.22H92.9679V381.156L99.7899 371.22H101.68V384H99.6639V374.226L92.9139 384H90.9519ZM104.661 384V371.22H114.759V384H112.725V373.002H106.677V384H104.661Z" fill="#04284A"/>
<path d="M21.44 160V147.22H26.804C27.38 147.22 27.908 147.34 28.388 147.58C28.868 147.82 29.288 148.138 29.648 148.534C30.008 148.93 30.284 149.374 30.476 149.866C30.668 150.358 30.764 150.862 30.764 151.378C30.764 152.086 30.602 152.764 30.278 153.412C29.966 154.048 29.516 154.564 28.928 154.96C28.352 155.356 27.68 155.554 26.912 155.554H23.456V160H21.44ZM23.456 153.772H26.786C27.17 153.772 27.506 153.67 27.794 153.466C28.082 153.25 28.304 152.962 28.46 152.602C28.628 152.242 28.712 151.834 28.712 151.378C28.712 150.91 28.616 150.496 28.424 150.136C28.232 149.776 27.98 149.5 27.668 149.308C27.368 149.104 27.038 149.002 26.678 149.002H23.456V153.772ZM35.4308 147.22H37.3388L42.3068 160H40.1828L38.8328 156.526H33.9008L32.5688 160H30.4268L35.4308 147.22ZM38.4368 155.032L36.3848 149.434L34.2608 155.032H38.4368ZM42.5851 153.52C42.5851 152.74 42.7231 151.978 42.9991 151.234C43.2751 150.478 43.6771 149.794 44.2051 149.182C44.7451 148.558 45.3991 148.066 46.1671 147.706C46.9351 147.334 47.8051 147.148 48.7771 147.148C49.9291 147.148 50.9251 147.412 51.7651 147.94C52.6051 148.456 53.2291 149.122 53.6371 149.938L52.0531 151C51.8131 150.484 51.5071 150.076 51.1351 149.776C50.7751 149.476 50.3791 149.266 49.9471 149.146C49.5271 149.026 49.1131 148.966 48.7051 148.966C48.0331 148.966 47.4451 149.104 46.9411 149.38C46.4371 149.644 46.0111 149.998 45.6631 150.442C45.3271 150.886 45.0691 151.384 44.8891 151.936C44.7211 152.488 44.6371 153.04 44.6371 153.592C44.6371 154.204 44.7391 154.798 44.9431 155.374C45.1471 155.938 45.4291 156.442 45.7891 156.886C46.1611 157.318 46.5991 157.66 47.1031 157.912C47.6071 158.164 48.1591 158.29 48.7591 158.29C49.1671 158.29 49.5931 158.218 50.0371 158.074C50.4811 157.93 50.8891 157.708 51.2611 157.408C51.6451 157.096 51.9451 156.688 52.1611 156.184L53.8351 157.138C53.5711 157.774 53.1571 158.314 52.5931 158.758C52.0411 159.202 51.4171 159.538 50.7211 159.766C50.0371 159.994 49.3591 160.108 48.6871 160.108C47.7871 160.108 46.9651 159.922 46.2211 159.55C45.4771 159.166 44.8351 158.662 44.2951 158.038C43.7551 157.402 43.3351 156.694 43.0351 155.914C42.7351 155.122 42.5851 154.324 42.5851 153.52ZM65.2938 162.43V160H55.6998V147.22H57.7158V158.218H63.4218V147.22H65.4558V158.218H67.0758V162.43H65.2938ZM77.8955 158.218V160H69.1295V147.22H77.7335V149.002H71.1455V152.638H76.8515V154.312H71.1455V158.218H77.8955ZM90.4692 147.22V160H88.4352V154.366H81.9912V160H79.9752V147.22H81.9912V152.566H88.4352V147.22H90.4692ZM93.3701 160V147.22H95.3861V152.566H96.8801L100.894 147.22H103.198L98.5001 153.412L103.54 160H101.074L96.8801 154.42H95.3861V160H93.3701ZM109.083 147.22H110.991L115.959 160H113.835L112.485 156.526H107.553L106.221 160H104.079L109.083 147.22ZM112.089 155.032L110.037 149.434L107.913 155.032H112.089Z" fill="#04284A"/>
<path d="M343.818 262.002H339.57V273H337.536V262.002H333.27V260.22H343.818V262.002ZM354.298 271.218V273H345.532V260.22H354.136V262.002H347.548V265.638H353.254V267.312H347.548V271.218H354.298ZM355.339 266.52C355.339 265.74 355.477 264.978 355.753 264.234C356.029 263.478 356.431 262.794 356.959 262.182C357.499 261.558 358.153 261.066 358.921 260.706C359.689 260.334 360.559 260.148 361.531 260.148C362.683 260.148 363.679 260.412 364.519 260.94C365.359 261.456 365.983 262.122 366.391 262.938L364.807 264C364.567 263.484 364.261 263.076 363.889 262.776C363.529 262.476 363.133 262.266 362.701 262.146C362.281 262.026 361.867 261.966 361.459 261.966C360.787 261.966 360.199 262.104 359.695 262.38C359.191 262.644 358.765 262.998 358.417 263.442C358.081 263.886 357.823 264.384 357.643 264.936C357.475 265.488 357.391 266.04 357.391 266.592C357.391 267.204 357.493 267.798 357.697 268.374C357.901 268.938 358.183 269.442 358.543 269.886C358.915 270.318 359.353 270.66 359.857 270.912C360.361 271.164 360.913 271.29 361.513 271.29C361.921 271.29 362.347 271.218 362.791 271.074C363.235 270.93 363.643 270.708 364.015 270.408C364.399 270.096 364.699 269.688 364.915 269.184L366.589 270.138C366.325 270.774 365.911 271.314 365.347 271.758C364.795 272.202 364.171 272.538 363.475 272.766C362.791 272.994 362.113 273.108 361.441 273.108C360.541 273.108 359.719 272.922 358.975 272.55C358.231 272.166 357.589 271.662 357.049 271.038C356.509 270.402 356.089 269.694 355.789 268.914C355.489 268.122 355.339 267.324 355.339 266.52ZM377.832 262.002H373.584V273H371.55V262.002H367.284V260.22H377.832V262.002ZM384.504 273.09C383.58 273.09 382.746 272.91 382.002 272.55C381.258 272.19 380.616 271.704 380.076 271.092C379.536 270.468 379.116 269.772 378.816 269.004C378.528 268.224 378.384 267.426 378.384 266.61C378.384 265.758 378.54 264.948 378.852 264.18C379.164 263.4 379.596 262.71 380.148 262.11C380.7 261.498 381.348 261.018 382.092 260.67C382.848 260.31 383.664 260.13 384.54 260.13C385.452 260.13 386.28 260.316 387.024 260.688C387.78 261.06 388.422 261.558 388.95 262.182C389.49 262.806 389.904 263.502 390.192 264.27C390.492 265.038 390.642 265.824 390.642 266.628C390.642 267.48 390.486 268.296 390.174 269.076C389.874 269.844 389.448 270.534 388.896 271.146C388.344 271.746 387.69 272.22 386.934 272.568C386.19 272.916 385.38 273.09 384.504 273.09ZM380.436 266.61C380.436 267.21 380.532 267.792 380.724 268.356C380.916 268.92 381.186 269.424 381.534 269.868C381.894 270.3 382.326 270.642 382.83 270.894C383.334 271.146 383.898 271.272 384.522 271.272C385.17 271.272 385.746 271.14 386.25 270.876C386.754 270.612 387.174 270.258 387.51 269.814C387.858 269.358 388.122 268.854 388.302 268.302C388.482 267.738 388.572 267.174 388.572 266.61C388.572 266.01 388.476 265.434 388.284 264.882C388.104 264.318 387.834 263.82 387.474 263.388C387.114 262.944 386.682 262.596 386.178 262.344C385.686 262.092 385.134 261.966 384.522 261.966C383.874 261.966 383.298 262.098 382.794 262.362C382.29 262.626 381.864 262.98 381.516 263.424C381.168 263.868 380.898 264.366 380.706 264.918C380.526 265.47 380.436 266.034 380.436 266.61ZM402.773 269.706C402.773 270.39 402.593 270.978 402.233 271.47C401.885 271.962 401.411 272.34 400.811 272.604C400.211 272.868 399.551 273 398.831 273H392.729V260.22H399.317C399.917 260.22 400.433 260.382 400.865 260.706C401.309 261.018 401.645 261.426 401.873 261.93C402.113 262.422 402.233 262.938 402.233 263.478C402.233 264.102 402.071 264.69 401.747 265.242C401.435 265.782 400.985 266.184 400.397 266.448C401.129 266.664 401.705 267.06 402.125 267.636C402.557 268.2 402.773 268.89 402.773 269.706ZM400.703 269.328C400.703 268.968 400.625 268.644 400.469 268.356C400.325 268.056 400.121 267.816 399.857 267.636C399.605 267.444 399.305 267.348 398.957 267.348H394.745V271.254H398.831C399.191 271.254 399.509 271.17 399.785 271.002C400.073 270.822 400.295 270.588 400.451 270.3C400.619 270 400.703 269.676 400.703 269.328ZM394.745 261.966V265.728H398.453C398.789 265.728 399.089 265.65 399.353 265.494C399.617 265.326 399.827 265.104 399.983 264.828C400.139 264.54 400.217 264.216 400.217 263.856C400.217 263.484 400.145 263.16 400.001 262.884C399.857 262.596 399.659 262.374 399.407 262.218C399.167 262.05 398.885 261.966 398.561 261.966H394.745ZM404.876 273V260.22H406.892V264.936H409.754C410.69 264.936 411.476 265.104 412.112 265.44C412.76 265.764 413.246 266.226 413.57 266.826C413.906 267.426 414.074 268.134 414.074 268.95C414.074 269.718 413.912 270.414 413.588 271.038C413.264 271.65 412.79 272.13 412.166 272.478C411.542 272.826 410.78 273 409.88 273H404.876ZM406.892 271.326H409.592C410.156 271.326 410.618 271.218 410.978 271.002C411.338 270.786 411.596 270.498 411.752 270.138C411.92 269.766 412.004 269.37 412.004 268.95C412.004 268.542 411.926 268.158 411.77 267.798C411.626 267.438 411.374 267.15 411.014 266.934C410.666 266.718 410.186 266.61 409.574 266.61H406.892V271.326ZM416.09 273V260.238H418.124V273H416.09ZM421.067 273V260.22H423.083V270.156L429.905 260.22H431.795V273H429.779V263.226L423.029 273H421.067ZM426.431 259.356C425.783 259.356 425.225 259.254 424.757 259.05C424.289 258.834 423.935 258.546 423.695 258.186C423.455 257.814 423.335 257.406 423.335 256.962H424.793C424.793 257.286 424.913 257.58 425.153 257.844C425.405 258.108 425.831 258.24 426.431 258.24C427.019 258.24 427.439 258.12 427.691 257.88C427.943 257.64 428.069 257.334 428.069 256.962H429.527C429.527 257.406 429.407 257.814 429.167 258.186C428.927 258.546 428.573 258.834 428.105 259.05C427.649 259.254 427.091 259.356 426.431 259.356ZM443.004 273.144C442.032 273.144 441.15 272.94 440.358 272.532C439.578 272.124 438.966 271.56 438.522 270.84L440.07 269.886C440.358 270.378 440.748 270.762 441.24 271.038C441.744 271.302 442.32 271.434 442.968 271.434C443.784 271.434 444.408 271.242 444.84 270.858C445.284 270.474 445.506 269.964 445.506 269.328C445.506 268.92 445.416 268.56 445.236 268.248C445.056 267.924 444.786 267.678 444.426 267.51C444.066 267.33 443.628 267.24 443.112 267.24H441.69V265.674H443.112C443.532 265.674 443.886 265.596 444.174 265.44C444.474 265.272 444.702 265.05 444.858 264.774C445.014 264.486 445.092 264.162 445.092 263.802C445.092 263.43 445.002 263.106 444.822 262.83C444.654 262.542 444.408 262.32 444.084 262.164C443.76 261.996 443.364 261.912 442.896 261.912C442.248 261.912 441.69 262.044 441.222 262.308C440.766 262.572 440.406 262.932 440.142 263.388L438.666 262.362C439.11 261.666 439.68 261.114 440.376 260.706C441.084 260.298 441.954 260.094 442.986 260.094C443.814 260.094 444.528 260.232 445.128 260.508C445.74 260.772 446.214 261.162 446.55 261.678C446.886 262.182 447.054 262.794 447.054 263.514C447.054 264.114 446.904 264.678 446.604 265.206C446.316 265.722 445.866 266.112 445.254 266.376C445.986 266.58 446.55 266.964 446.946 267.528C447.354 268.092 447.558 268.752 447.558 269.508C447.558 270.276 447.36 270.936 446.964 271.488C446.568 272.028 446.028 272.442 445.344 272.73C444.672 273.006 443.892 273.144 443.004 273.144ZM453.126 260.22H455.034L460.002 273H457.878L456.528 269.526H451.596L450.264 273H448.122L453.126 260.22ZM456.132 268.032L454.08 262.434L451.956 268.032H456.132ZM461.601 273V260.22H471.699V273H469.665V262.002H463.617V273H461.601ZM475.886 273.072V271.38H476.804C477.104 271.38 477.332 271.308 477.488 271.164C477.644 271.02 477.794 270.804 477.938 270.516L478.316 269.688L473.114 260.22H475.346L479.234 267.618L482.528 260.22H484.67L479.486 271.47C479.198 272.058 478.88 272.472 478.532 272.712C478.196 272.952 477.734 273.072 477.146 273.072H475.886ZM485.118 266.52C485.118 265.74 485.256 264.978 485.532 264.234C485.808 263.478 486.21 262.794 486.738 262.182C487.278 261.558 487.932 261.066 488.7 260.706C489.468 260.334 490.338 260.148 491.31 260.148C492.462 260.148 493.458 260.412 494.298 260.94C495.138 261.456 495.762 262.122 496.17 262.938L494.586 264C494.346 263.484 494.04 263.076 493.668 262.776C493.308 262.476 492.912 262.266 492.48 262.146C492.06 262.026 491.646 261.966 491.238 261.966C490.566 261.966 489.978 262.104 489.474 262.38C488.97 262.644 488.544 262.998 488.196 263.442C487.86 263.886 487.602 264.384 487.422 264.936C487.254 265.488 487.17 266.04 487.17 266.592C487.17 267.204 487.272 267.798 487.476 268.374C487.68 268.938 487.962 269.442 488.322 269.886C488.694 270.318 489.132 270.66 489.636 270.912C490.14 271.164 490.692 271.29 491.292 271.29C491.7 271.29 492.126 271.218 492.57 271.074C493.014 270.93 493.422 270.708 493.794 270.408C494.178 270.096 494.478 269.688 494.694 269.184L496.368 270.138C496.104 270.774 495.69 271.314 495.126 271.758C494.574 272.202 493.95 272.538 493.254 272.766C492.57 272.994 491.892 273.108 491.22 273.108C490.32 273.108 489.498 272.922 488.754 272.55C488.01 272.166 487.368 271.662 486.828 271.038C486.288 270.402 485.868 269.694 485.568 268.914C485.268 268.122 485.118 267.324 485.118 266.52ZM498.251 273V260.22H500.267V265.566H501.761L505.775 260.22H508.079L503.381 266.412L508.421 273H505.955L501.761 267.42H500.267V273H498.251Z" fill="#04284A"/>
<path d="M334.458 497V484.22H344.556V497H342.522V486.002H336.474V497H334.458ZM347.448 497V484.22H352.812C353.388 484.22 353.916 484.34 354.396 484.58C354.876 484.82 355.296 485.138 355.656 485.534C356.016 485.93 356.292 486.374 356.484 486.866C356.676 487.358 356.772 487.862 356.772 488.378C356.772 489.086 356.61 489.764 356.286 490.412C355.974 491.048 355.524 491.564 354.936 491.96C354.36 492.356 353.688 492.554 352.92 492.554H349.464V497H347.448ZM349.464 490.772H352.794C353.178 490.772 353.514 490.67 353.802 490.466C354.09 490.25 354.312 489.962 354.468 489.602C354.636 489.242 354.72 488.834 354.72 488.378C354.72 487.91 354.624 487.496 354.432 487.136C354.24 486.776 353.988 486.5 353.676 486.308C353.376 486.104 353.046 486.002 352.686 486.002H349.464V490.772ZM363.973 497.09C363.049 497.09 362.215 496.91 361.471 496.55C360.727 496.19 360.085 495.704 359.545 495.092C359.005 494.468 358.585 493.772 358.285 493.004C357.997 492.224 357.853 491.426 357.853 490.61C357.853 489.758 358.009 488.948 358.321 488.18C358.633 487.4 359.065 486.71 359.617 486.11C360.169 485.498 360.817 485.018 361.561 484.67C362.317 484.31 363.133 484.13 364.009 484.13C364.921 484.13 365.749 484.316 366.493 484.688C367.249 485.06 367.891 485.558 368.419 486.182C368.959 486.806 369.373 487.502 369.661 488.27C369.961 489.038 370.111 489.824 370.111 490.628C370.111 491.48 369.955 492.296 369.643 493.076C369.343 493.844 368.917 494.534 368.365 495.146C367.813 495.746 367.159 496.22 366.403 496.568C365.659 496.916 364.849 497.09 363.973 497.09ZM359.905 490.61C359.905 491.21 360.001 491.792 360.193 492.356C360.385 492.92 360.655 493.424 361.003 493.868C361.363 494.3 361.795 494.642 362.299 494.894C362.803 495.146 363.367 495.272 363.991 495.272C364.639 495.272 365.215 495.14 365.719 494.876C366.223 494.612 366.643 494.258 366.979 493.814C367.327 493.358 367.591 492.854 367.771 492.302C367.951 491.738 368.041 491.174 368.041 490.61C368.041 490.01 367.945 489.434 367.753 488.882C367.573 488.318 367.303 487.82 366.943 487.388C366.583 486.944 366.151 486.596 365.647 486.344C365.155 486.092 364.603 485.966 363.991 485.966C363.343 485.966 362.767 486.098 362.263 486.362C361.759 486.626 361.333 486.98 360.985 487.424C360.637 487.868 360.367 488.366 360.175 488.918C359.995 489.47 359.905 490.034 359.905 490.61ZM372.288 497V484.22H374.304V494.156L381.126 484.22H383.016V497H381V487.226L374.25 497H372.288ZM389.777 497.144C388.805 497.144 387.923 496.94 387.131 496.532C386.351 496.124 385.739 495.56 385.295 494.84L386.843 493.886C387.131 494.378 387.521 494.762 388.013 495.038C388.517 495.302 389.093 495.434 389.741 495.434C390.557 495.434 391.181 495.242 391.613 494.858C392.057 494.474 392.279 493.964 392.279 493.328C392.279 492.92 392.189 492.56 392.009 492.248C391.829 491.924 391.559 491.678 391.199 491.51C390.839 491.33 390.401 491.24 389.885 491.24H388.463V489.674H389.885C390.305 489.674 390.659 489.596 390.947 489.44C391.247 489.272 391.475 489.05 391.631 488.774C391.787 488.486 391.865 488.162 391.865 487.802C391.865 487.43 391.775 487.106 391.595 486.83C391.427 486.542 391.181 486.32 390.857 486.164C390.533 485.996 390.137 485.912 389.669 485.912C389.021 485.912 388.463 486.044 387.995 486.308C387.539 486.572 387.179 486.932 386.915 487.388L385.439 486.362C385.883 485.666 386.453 485.114 387.149 484.706C387.857 484.298 388.727 484.094 389.759 484.094C390.587 484.094 391.301 484.232 391.901 484.508C392.513 484.772 392.987 485.162 393.323 485.678C393.659 486.182 393.827 486.794 393.827 487.514C393.827 488.114 393.677 488.678 393.377 489.206C393.089 489.722 392.639 490.112 392.027 490.376C392.759 490.58 393.323 490.964 393.719 491.528C394.127 492.092 394.331 492.752 394.331 493.508C394.331 494.276 394.133 494.936 393.737 495.488C393.341 496.028 392.801 496.442 392.117 496.73C391.445 497.006 390.665 497.144 389.777 497.144ZM406.535 493.706C406.535 494.39 406.355 494.978 405.995 495.47C405.647 495.962 405.173 496.34 404.573 496.604C403.973 496.868 403.313 497 402.593 497H396.491V484.22H403.079C403.679 484.22 404.195 484.382 404.627 484.706C405.071 485.018 405.407 485.426 405.635 485.93C405.875 486.422 405.995 486.938 405.995 487.478C405.995 488.102 405.833 488.69 405.509 489.242C405.197 489.782 404.747 490.184 404.159 490.448C404.891 490.664 405.467 491.06 405.887 491.636C406.319 492.2 406.535 492.89 406.535 493.706ZM404.465 493.328C404.465 492.968 404.387 492.644 404.231 492.356C404.087 492.056 403.883 491.816 403.619 491.636C403.367 491.444 403.067 491.348 402.719 491.348H398.507V495.254H402.593C402.953 495.254 403.271 495.17 403.547 495.002C403.835 494.822 404.057 494.588 404.213 494.3C404.381 494 404.465 493.676 404.465 493.328ZM398.507 485.966V489.728H402.215C402.551 489.728 402.851 489.65 403.115 489.494C403.379 489.326 403.589 489.104 403.745 488.828C403.901 488.54 403.979 488.216 403.979 487.856C403.979 487.484 403.907 487.16 403.763 486.884C403.619 486.596 403.421 486.374 403.169 486.218C402.929 486.05 402.647 485.966 402.323 485.966H398.507ZM413.947 497.09C413.023 497.09 412.189 496.91 411.445 496.55C410.701 496.19 410.059 495.704 409.519 495.092C408.979 494.468 408.559 493.772 408.259 493.004C407.971 492.224 407.827 491.426 407.827 490.61C407.827 489.758 407.983 488.948 408.295 488.18C408.607 487.4 409.039 486.71 409.591 486.11C410.143 485.498 410.791 485.018 411.535 484.67C412.291 484.31 413.107 484.13 413.983 484.13C414.895 484.13 415.723 484.316 416.467 484.688C417.223 485.06 417.865 485.558 418.393 486.182C418.933 486.806 419.347 487.502 419.635 488.27C419.935 489.038 420.085 489.824 420.085 490.628C420.085 491.48 419.929 492.296 419.617 493.076C419.317 493.844 418.891 494.534 418.339 495.146C417.787 495.746 417.133 496.22 416.377 496.568C415.633 496.916 414.823 497.09 413.947 497.09ZM409.879 490.61C409.879 491.21 409.975 491.792 410.167 492.356C410.359 492.92 410.629 493.424 410.977 493.868C411.337 494.3 411.769 494.642 412.273 494.894C412.777 495.146 413.341 495.272 413.965 495.272C414.613 495.272 415.189 495.14 415.693 494.876C416.197 494.612 416.617 494.258 416.953 493.814C417.301 493.358 417.565 492.854 417.745 492.302C417.925 491.738 418.015 491.174 418.015 490.61C418.015 490.01 417.919 489.434 417.727 488.882C417.547 488.318 417.277 487.82 416.917 487.388C416.557 486.944 416.125 486.596 415.621 486.344C415.129 486.092 414.577 485.966 413.965 485.966C413.317 485.966 412.741 486.098 412.237 486.362C411.733 486.626 411.307 486.98 410.959 487.424C410.611 487.868 410.341 488.366 410.149 488.918C409.969 489.47 409.879 490.034 409.879 490.61ZM421.326 499.448V495.218H421.938C422.274 495.218 422.562 495.086 422.802 494.822C423.054 494.558 423.264 494.138 423.432 493.562C423.612 492.986 423.75 492.23 423.846 491.294C423.954 490.346 424.032 489.188 424.08 487.82L424.17 484.22H432.396V495.218H434.016V499.448H432.234V497H423.108V499.448H421.326ZM424.494 495.218H430.362V486.002H426.042L425.988 488.09C425.952 489.47 425.88 490.64 425.772 491.6C425.664 492.548 425.508 493.316 425.304 493.904C425.1 494.492 424.83 494.93 424.494 495.218ZM435.267 490.52C435.267 489.74 435.405 488.978 435.681 488.234C435.957 487.478 436.359 486.794 436.887 486.182C437.427 485.558 438.081 485.066 438.849 484.706C439.617 484.334 440.487 484.148 441.459 484.148C442.611 484.148 443.607 484.412 444.447 484.94C445.287 485.456 445.911 486.122 446.319 486.938L444.735 488C444.495 487.484 444.189 487.076 443.817 486.776C443.457 486.476 443.061 486.266 442.629 486.146C442.209 486.026 441.795 485.966 441.387 485.966C440.715 485.966 440.127 486.104 439.623 486.38C439.119 486.644 438.693 486.998 438.345 487.442C438.009 487.886 437.751 488.384 437.571 488.936C437.403 489.488 437.319 490.04 437.319 490.592C437.319 491.204 437.421 491.798 437.625 492.374C437.829 492.938 438.111 493.442 438.471 493.886C438.843 494.318 439.281 494.66 439.785 494.912C440.289 495.164 440.841 495.29 441.441 495.29C441.849 495.29 442.275 495.218 442.719 495.074C443.163 494.93 443.571 494.708 443.943 494.408C444.327 494.096 444.627 493.688 444.843 493.184L446.517 494.138C446.253 494.774 445.839 495.314 445.275 495.758C444.723 496.202 444.099 496.538 443.403 496.766C442.719 496.994 442.041 497.108 441.369 497.108C440.469 497.108 439.647 496.922 438.903 496.55C438.159 496.166 437.517 495.662 436.977 495.038C436.437 494.402 436.017 493.694 435.717 492.914C435.417 492.122 435.267 491.324 435.267 490.52ZM457.759 486.002H453.511V497H451.477V486.002H447.211V484.22H457.759V486.002ZM469.517 493.706C469.517 494.39 469.337 494.978 468.977 495.47C468.629 495.962 468.155 496.34 467.555 496.604C466.955 496.868 466.295 497 465.575 497H459.473V484.22H466.061C466.661 484.22 467.177 484.382 467.609 484.706C468.053 485.018 468.389 485.426 468.617 485.93C468.857 486.422 468.977 486.938 468.977 487.478C468.977 488.102 468.815 488.69 468.491 489.242C468.179 489.782 467.729 490.184 467.141 490.448C467.873 490.664 468.449 491.06 468.869 491.636C469.301 492.2 469.517 492.89 469.517 493.706ZM467.447 493.328C467.447 492.968 467.369 492.644 467.213 492.356C467.069 492.056 466.865 491.816 466.601 491.636C466.349 491.444 466.049 491.348 465.701 491.348H461.489V495.254H465.575C465.935 495.254 466.253 495.17 466.529 495.002C466.817 494.822 467.039 494.588 467.195 494.3C467.363 494 467.447 493.676 467.447 493.328ZM461.489 485.966V489.728H465.197C465.533 489.728 465.833 489.65 466.097 489.494C466.361 489.326 466.571 489.104 466.727 488.828C466.883 488.54 466.961 488.216 466.961 487.856C466.961 487.484 466.889 487.16 466.745 486.884C466.601 486.596 466.403 486.374 466.151 486.218C465.911 486.05 465.629 485.966 465.305 485.966H461.489ZM476.93 497.09C476.006 497.09 475.172 496.91 474.428 496.55C473.684 496.19 473.042 495.704 472.502 495.092C471.962 494.468 471.542 493.772 471.242 493.004C470.954 492.224 470.81 491.426 470.81 490.61C470.81 489.758 470.966 488.948 471.278 488.18C471.59 487.4 472.022 486.71 472.574 486.11C473.126 485.498 473.774 485.018 474.518 484.67C475.274 484.31 476.09 484.13 476.966 484.13C477.878 484.13 478.706 484.316 479.45 484.688C480.206 485.06 480.848 485.558 481.376 486.182C481.916 486.806 482.33 487.502 482.618 488.27C482.918 489.038 483.068 489.824 483.068 490.628C483.068 491.48 482.912 492.296 482.6 493.076C482.3 493.844 481.874 494.534 481.322 495.146C480.77 495.746 480.116 496.22 479.36 496.568C478.616 496.916 477.806 497.09 476.93 497.09ZM472.862 490.61C472.862 491.21 472.958 491.792 473.15 492.356C473.342 492.92 473.612 493.424 473.96 493.868C474.32 494.3 474.752 494.642 475.256 494.894C475.76 495.146 476.324 495.272 476.948 495.272C477.596 495.272 478.172 495.14 478.676 494.876C479.18 494.612 479.6 494.258 479.936 493.814C480.284 493.358 480.548 492.854 480.728 492.302C480.908 491.738 480.998 491.174 480.998 490.61C480.998 490.01 480.902 489.434 480.71 488.882C480.53 488.318 480.26 487.82 479.9 487.388C479.54 486.944 479.108 486.596 478.604 486.344C478.112 486.092 477.56 485.966 476.948 485.966C476.3 485.966 475.724 486.098 475.22 486.362C474.716 486.626 474.29 486.98 473.942 487.424C473.594 487.868 473.324 488.366 473.132 488.918C472.952 489.47 472.862 490.034 472.862 490.61Z" fill="#04284A"/>
<defs>
<clipPath id="clip0_1_2450">
<rect width="646.68" height="142.33" fill="white" transform="translate(155 646.68) rotate(-90)"/>
</clipPath>
</defs>
</svg>
