<svg width="44" height="44" viewBox="0 0 44 44" fill="none" xmlns="http://www.w3.org/2000/svg">
<path d="M21.9399 15.5701C18.4799 15.5701 15.6699 18.3801 15.6699 21.8401C15.6699 25.3001 18.4799 28.1101 21.9399 28.1101C25.3999 28.1101 28.2099 25.3001 28.2099 21.8401C28.2099 18.3801 25.3999 15.5701 21.9399 15.5701ZM21.9399 25.6001C19.8699 25.6001 18.1799 23.9101 18.1799 21.8401C18.1799 19.7701 19.8699 18.0801 21.9399 18.0801C24.0099 18.0801 25.6999 19.7701 25.6999 21.8401C25.6999 23.9101 24.0099 25.6001 21.9399 25.6001Z" fill="#00C3D9"/>
<path d="M21.9399 23.6101L20.1699 21.8401L21.9399 20.0701L23.7099 21.8401L21.9399 23.6101Z" fill="#00C3D9"/>
<path d="M33.1599 29.94C33.2999 27.42 33.1899 24.91 32.8099 22.41C31.8599 16.14 29.2799 10.16 25.1399 4.65001L21.9499 0.390015L18.7599 4.65001C14.6299 10.16 12.0499 16.14 11.0899 22.41C10.7099 24.9 10.5899 27.42 10.7399 29.94C9.27991 30.99 8.06991 32.36 7.18991 33.93C6.17991 35.75 5.6499 37.81 5.6499 39.89V43.25L8.24991 41.34C9.54991 40.48 11.0299 39.9 12.5699 39.64C13.0399 41.12 13.3999 41.97 13.8699 43.26C14.6999 42.71 16.6899 40.25 20.6999 39.77V43.25H23.2099V39.77C27.2299 40.25 29.2199 42.71 30.0399 43.26C30.5199 41.96 30.8699 41.12 31.3399 39.64C32.8799 39.9 34.3599 40.48 35.6599 41.34L38.2599 43.25V39.89C38.2599 35.95 36.3699 32.25 33.1699 29.94H33.1599ZM8.2599 38.44C8.5699 36.35 9.53991 34.44 11.0299 32.96C11.2299 34.38 11.5099 35.79 11.8699 37.21C10.6199 37.45 9.3999 37.86 8.2599 38.44ZM28.8499 39.16C27.1099 38.07 25.1799 37.43 23.2099 37.24V30.7H20.6999V37.24C18.7299 37.43 16.7899 38.07 15.0599 39.16C11.3199 27.75 13.3199 16.09 20.7699 6.16001L21.9599 4.58001L23.1499 6.16001C30.5999 16.09 32.5999 27.75 28.8599 39.16H28.8499ZM32.0299 37.21C32.3899 35.79 32.6699 34.38 32.8699 32.96C34.3599 34.43 35.3399 36.35 35.6399 38.44C34.4999 37.87 33.2799 37.45 32.0299 37.21Z" fill="#00C3D9"/>
<path d="M0.539917 10.55H8.14992V13.0601H0.539917V10.55Z" fill="#00C3D9"/>
<path d="M35.7399 10.55H43.3499V13.0601H35.7399V10.55Z" fill="#00C3D9"/>
<path d="M3.1499 1.66003L9.96991 4.84003L8.90991 7.11004L2.0899 3.93004L3.1499 1.66003Z" fill="#00C3D9"/>
<path d="M40.7399 21.95L33.9199 18.77L34.9799 16.5L41.7999 19.68L40.7399 21.95Z" fill="#00C3D9"/>
<path d="M2.0899 19.68L8.90991 16.5L9.96991 18.77L3.1499 21.95L2.0899 19.68Z" fill="#00C3D9"/>
<path d="M40.7399 1.66003L41.7999 3.93004L34.9799 7.11004L33.9199 4.84003L40.7399 1.66003Z" fill="#00C3D9"/>
</svg>
