<svg width="44" height="43" viewBox="0 0 44 43" fill="none" xmlns="http://www.w3.org/2000/svg">
<path d="M25.3979 21.2772L19.8126 18.0856V24.4688L25.3979 21.2772Z" fill="white"/>
<path fill-rule="evenodd" clip-rule="evenodd" d="M0.663177 21.2772C0.663177 9.52612 10.1893 0 21.9404 0C33.6914 0 43.2176 9.52612 43.2176 21.2772C43.2176 33.0283 33.6914 42.5544 21.9404 42.5544C10.1893 42.5544 0.663177 33.0283 0.663177 21.2772ZM30.1853 14.2291C31.1162 14.4951 31.7811 15.16 32.047 16.0909C32.579 17.8197 32.579 21.2772 32.579 21.2772C32.579 21.2772 32.579 24.7347 32.18 26.4635C31.9141 27.3944 31.2491 28.0593 30.3183 28.3253C28.5895 28.7242 21.9404 28.7242 21.9404 28.7242C21.9404 28.7242 15.1583 28.7242 13.5625 28.3253C12.6316 28.0593 11.9667 27.3944 11.7007 26.4635C11.3018 24.7347 11.3018 21.2772 11.3018 21.2772C11.3018 21.2772 11.3018 17.8197 11.5677 16.0909C11.8337 15.16 12.4986 14.4951 13.4295 14.2291C15.1583 13.8302 21.8074 13.8302 21.8074 13.8302C21.8074 13.8302 28.5895 13.8302 30.1853 14.2291Z" fill="white"/>
</svg>
